<?xml version="1.0" standalone="no"?>
<!DOCTYPE svg PUBLIC "-//W3C//DTD SVG 20010904//EN"
 "http://www.w3.org/TR/2001/REC-SVG-20010904/DTD/svg10.dtd">
<svg version="1.0" xmlns="http://www.w3.org/2000/svg"
 width="1310.000000pt" height="837.000000pt" viewBox="0 0 1310.000000 837.000000"
 preserveAspectRatio="xMidYMid meet">

<g transform="translate(0.000000,837.000000) scale(0.100000,-0.100000)"
fill="#000000" stroke="none">
<path d="M2627 8262 c-39 -42 -99 -217 -69 -198 6 3 16 32 23 64 19 90 59 108
59 26 0 -40 8 -53 23 -38 3 3 -1 27 -9 52 -7 26 -11 62 -8 80 7 37 4 39 -19
14z"/>
<path d="M2684 8255 c4 -11 12 -32 16 -46 4 -14 14 -37 21 -50 7 -13 13 -31
14 -39 1 -8 7 -33 14 -55 12 -38 24 -64 106 -240 118 -252 175 -427 290 -885
35 -138 36 -145 18 -158 -17 -14 -17 -14 2 -7 103 39 155 41 217 9 77 -40 164
-150 217 -274 13 -30 27 -62 31 -71 5 -9 38 -74 74 -145 35 -71 70 -151 77
-178 11 -46 11 -51 -6 -60 -10 -6 -30 -21 -43 -34 -31 -30 -26 -50 38 -151 67
-108 88 -184 100 -359 6 -80 17 -213 26 -296 16 -156 15 -255 -6 -389 -13 -85
-8 -103 18 -71 9 11 38 31 65 42 51 24 157 122 157 146 0 9 8 20 18 25 9 5 28
28 40 50 19 34 21 41 8 41 -9 0 -27 -17 -41 -39 -14 -21 -44 -53 -66 -70 -22
-18 -37 -36 -34 -42 4 -5 -1 -9 -10 -9 -21 0 -75 -27 -103 -53 l-22 -21 4 55
c3 30 9 96 15 147 5 51 7 116 4 145 -5 48 -3 55 26 87 53 60 103 278 171 740
30 207 54 338 119 650 17 80 42 251 56 380 31 281 61 492 75 539 15 54 4 48
-14 -6 -24 -74 -44 -178 -77 -407 -63 -442 -75 -508 -147 -816 -17 -69 -37
-165 -46 -215 -59 -333 -82 -453 -121 -634 -25 -112 -47 -206 -49 -208 -4 -4
-6 11 -31 265 -15 146 -52 303 -75 317 -13 8 -13 52 -1 59 20 12 73 186 162
531 39 149 92 347 118 440 48 170 72 277 50 225 -6 -14 -59 -194 -119 -400
-61 -206 -119 -400 -131 -430 -21 -53 -31 -87 -79 -272 -12 -49 -25 -88 -29
-88 -8 0 -51 67 -51 80 0 5 6 10 14 10 8 0 24 8 37 19 l23 18 -16 82 c-12 58
-30 106 -65 169 -26 48 -63 120 -82 161 l-34 74 5 191 c3 105 2 160 -2 121 -4
-38 -8 -114 -9 -167 0 -54 -5 -98 -9 -98 -5 0 -20 21 -33 47 -37 72 -111 147
-171 173 -43 18 -65 21 -120 18 -61 -5 -66 -4 -58 11 6 11 2 49 -11 107 -12
49 -24 109 -29 134 -15 88 -89 357 -129 471 -46 133 -117 290 -190 417 -27 48
-71 129 -98 181 -26 51 -59 101 -73 110 -23 15 -24 15 -16 -4z"/>
<path d="M2654 8068 c3 -18 35 -132 71 -253 35 -121 81 -277 101 -347 24 -85
42 -128 53 -132 9 -3 31 -15 49 -26 17 -11 32 -18 32 -15 0 10 -140 417 -179
520 -23 61 -56 149 -73 198 -20 55 -37 87 -46 87 -11 0 -13 -8 -8 -32z"/>
<path d="M2545 8038 c-14 -45 -26 -180 -31 -348 -5 -173 -8 -204 -31 -278 -22
-68 -24 -88 -15 -103 16 -24 15 -29 -3 -29 -9 0 -15 -9 -15 -24 0 -13 -3 -37
-6 -54 -5 -26 -3 -31 17 -35 l24 -4 -22 -8 c-26 -8 -25 -1 -29 -190 -2 -109 1
-145 12 -163 13 -20 13 -23 -1 -28 -22 -9 -22 -184 0 -184 18 0 18 -5 5 -30
-13 -25 8 -41 49 -36 17 2 34 6 37 9 10 10 -7 65 -22 71 -19 7 -18 26 1 26 13
0 15 28 15 188 0 186 0 189 -22 199 l-23 10 22 7 c13 4 22 15 21 24 -1 9 0 26
0 36 2 18 3 18 15 3 6 -9 24 -21 40 -26 25 -10 27 -9 27 18 0 16 -11 96 -25
178 -30 179 -30 205 -4 262 19 44 19 44 0 27 -11 -10 -25 -15 -30 -11 -20 12
-9 359 15 478 6 27 -12 40 -21 15z m-45 -1148 c0 -5 -7 -10 -16 -10 -8 0 -12
5 -9 10 3 6 10 10 16 10 5 0 9 -4 9 -10z m-30 -65 c0 -8 -4 -15 -10 -15 -5 0
-10 7 -10 15 0 8 5 15 10 15 6 0 10 -7 10 -15z"/>
<path d="M4350 7688 c-28 -30 -48 -69 -66 -127 -25 -84 -14 -77 27 16 37 83
43 91 66 90 32 -2 41 18 14 32 -16 9 -24 7 -41 -11z"/>
<path d="M4516 7635 c18 -79 24 -813 8 -993 -4 -57 -10 -74 -25 -82 -22 -13
-26 -45 -4 -37 8 4 16 3 19 -1 14 -23 -50 -476 -90 -632 -13 -52 -24 -105 -24
-118 0 -29 -53 -243 -85 -342 -72 -223 -95 -303 -90 -309 22 -21 108 155 149
306 13 48 40 144 59 213 63 227 90 388 133 778 6 53 7 54 52 74 26 11 62 26
80 34 18 9 83 26 145 39 62 14 127 28 146 32 34 8 81 56 68 70 -11 10 -169
-14 -276 -43 -68 -19 -108 -36 -147 -65 -29 -21 -56 -39 -59 -39 -4 0 -5 10
-3 23 2 15 18 29 55 47 35 17 55 34 62 53 13 35 1 35 -58 2 -23 -14 -45 -25
-47 -25 -2 0 -4 59 -4 130 0 72 -4 208 -10 303 -5 94 -14 253 -19 352 -7 119
-15 194 -26 220 -11 29 -13 31 -9 10z"/>
<path d="M3717 7433 c-4 -3 -7 -20 -6 -37 l1 -31 8 35 c9 36 8 45 -3 33z"/>
<path d="M3701 7339 c0 -15 -8 -46 -16 -69 -18 -50 -18 -50 -7 -50 12 0 35
102 29 126 -4 15 -5 13 -6 -7z"/>
<path d="M2885 7267 c54 -167 129 -466 149 -592 35 -231 32 -316 -21 -596 -15
-82 -13 -133 6 -113 8 8 34 88 68 214 68 250 49 529 -60 905 -53 181 -56 187
-105 190 -28 2 -39 -1 -37 -8z m69 -33 c8 -21 3 -26 -18 -18 -20 8 -21 34 -2
34 8 0 17 -7 20 -16z"/>
<path d="M1130 7189 c-41 -5 -115 -20 -165 -34 -95 -27 -245 -92 -245 -107 0
-11 0 -11 72 22 147 66 396 120 494 106 24 -3 45 -2 48 3 3 5 -15 11 -41 15
-52 7 -60 7 -163 -5z"/>
<path d="M3665 7152 c-4 -29 -5 -56 -2 -59 7 -7 20 82 15 99 -3 7 -8 -11 -13
-40z"/>
<path d="M1432 7151 c48 -16 113 -43 145 -61 32 -18 52 -26 45 -18 -24 30
-175 98 -227 103 -47 5 -44 3 37 -24z"/>
<path d="M3645 7005 c-4 -36 -5 -68 -3 -71 3 -2 8 25 12 62 4 37 5 69 2 71 -2
3 -7 -25 -11 -62z"/>
<path d="M2580 7040 c-12 -8 -11 -10 8 -10 12 0 22 5 22 10 0 13 -11 13 -30 0z"/>
<path d="M645 7006 c-28 -19 -72 -55 -100 -81 l-50 -47 45 35 c25 19 71 51
103 72 31 21 57 42 57 46 0 13 0 13 -55 -25z"/>
<path d="M2553 7004 c-3 -9 -2 -28 3 -43 7 -20 17 -27 42 -29 41 -4 43 21 7
61 -29 31 -43 34 -52 11z"/>
<path d="M2565 6888 c7 -32 25 -146 29 -189 7 -65 17 -99 31 -99 13 0 35 -29
35 -46 0 -3 -9 -4 -20 -1 -17 4 -18 1 -13 -27 3 -17 16 -40 28 -51 23 -20 23
-20 5 -43 -14 -17 -17 -29 -11 -45 5 -12 14 -50 20 -85 7 -34 18 -84 26 -110
8 -26 26 -87 41 -136 28 -96 73 -199 104 -238 16 -21 24 -24 61 -19 34 5 44
11 51 32 8 23 3 36 -30 83 -65 92 -84 145 -179 506 -37 142 -48 193 -74 333
-24 129 -24 129 -58 143 -45 19 -52 18 -46 -8z m70 -208 c3 -5 1 -10 -4 -10
-6 0 -11 5 -11 10 0 6 2 10 4 10 3 0 8 -4 11 -10z"/>
<path d="M4915 6761 c-85 -18 -148 -54 -142 -81 3 -17 13 -17 87 5 30 9 101
19 158 22 99 6 103 7 117 33 8 15 11 30 8 34 -12 12 -149 4 -228 -13z"/>
<path d="M3246 6689 c99 -67 200 -161 244 -228 47 -70 63 -167 58 -345 -4
-138 -7 -156 -32 -208 -28 -59 -119 -159 -168 -184 l-28 -14 30 42 c46 66 71
150 77 260 11 182 -59 403 -170 540 -23 29 -50 64 -60 78 -26 37 -21 1 6 -44
24 -38 24 -38 5 -74 -13 -26 -18 -59 -18 -117 -1 -180 -64 -485 -126 -607 -17
-34 -21 -34 -45 -5 -11 13 -18 17 -19 8 0 -7 -6 -11 -14 -8 -14 6 -31 -47 -20
-64 13 -21 58 -8 85 24 15 17 30 29 33 26 3 -3 -4 -55 -17 -115 l-22 -109 -85
-42 c-90 -44 -127 -52 -136 -29 -3 7 2 41 10 74 17 64 21 122 8 122 -11 0 -33
-40 -28 -49 3 -4 -1 -17 -8 -27 -10 -13 -11 -23 -5 -31 7 -8 5 -10 -10 -6 -11
3 -26 11 -32 19 -6 8 -15 14 -20 14 -16 0 -9 -30 11 -47 11 -10 20 -27 20 -38
0 -12 5 -26 11 -32 8 -8 5 -13 -10 -18 -28 -9 -46 2 -31 20 15 18 -45 68 -71
60 -13 -5 -19 -1 -19 10 0 19 -72 54 -112 55 -14 0 -28 5 -30 12 -3 7 -24 13
-50 13 -26 1 -53 7 -62 14 -23 19 -37 5 -24 -24 7 -16 19 -25 35 -25 34 0 28
-25 -9 -43 -29 -14 -34 -14 -49 -1 -13 12 -15 22 -9 45 7 22 6 27 -3 22 -16
-10 -29 -11 -48 -2 -9 5 -21 3 -27 -3 -8 -8 -13 -7 -18 6 -10 26 12 43 36 28
26 -16 50 -15 50 2 0 16 -90 30 -180 27 -14 -1 -49 2 -78 5 -43 5 -51 3 -46
-9 3 -8 11 -14 17 -14 32 1 48 -4 42 -13 -8 -13 -102 -5 -121 11 -8 6 -14 18
-14 25 0 18 -129 19 -265 3 -92 -11 -147 -8 -466 21 -59 5 -140 17 -180 26
-41 9 -83 17 -94 18 -20 1 -175 82 -226 117 -27 19 -49 11 -49 -18 0 -17 -16
-17 -27 0 -4 6 -10 30 -13 51 -6 44 -25 58 -35 26 -10 -33 2 -82 30 -115 23
-28 26 -29 39 -12 12 16 14 16 20 1 3 -8 6 -25 6 -36 0 -22 139 -163 172 -174
26 -8 35 3 20 26 -10 17 -10 20 3 20 11 0 15 -10 15 -35 0 -29 5 -37 26 -45
38 -15 44 -13 45 18 1 26 1 25 9 -6 4 -18 9 -34 11 -36 12 -11 165 -71 299
-119 85 -30 209 -76 275 -100 66 -25 156 -55 200 -67 44 -12 127 -35 185 -51
58 -15 116 -31 130 -33 14 -3 57 -12 95 -20 84 -19 186 -21 203 -4 9 9 15 8
25 -7 8 -10 19 -15 25 -11 7 4 38 -7 70 -24 35 -18 65 -28 75 -24 10 3 17 1
17 -5 0 -6 5 -11 11 -11 7 0 9 10 5 26 -5 17 -3 23 4 19 6 -4 17 10 26 32 37
94 64 133 139 208 50 50 102 91 140 110 116 59 471 276 521 319 58 50 106 136
123 216 13 61 7 288 -11 380 -27 140 -147 274 -325 364 -81 40 -75 31 23 -35z
m74 -294 c93 -187 114 -424 50 -567 -10 -24 -37 -65 -60 -92 -22 -26 -40 -52
-40 -56 0 -10 -140 -93 -147 -87 -3 3 4 32 15 64 27 78 48 186 62 313 6 58 18
146 27 195 10 53 16 145 17 223 0 131 0 133 18 110 10 -13 36 -59 58 -103z
m-2525 -625 c3 -5 2 -10 -4 -10 -5 0 -13 5 -16 10 -3 6 -2 10 4 10 5 0 13 -4
16 -10z m192 -116 c62 -32 111 -59 109 -61 -5 -5 -139 43 -182 66 -22 12 -52
33 -65 47 l-24 25 25 -9 c14 -5 76 -36 137 -68z m229 12 c39 -7 75 -16 80 -19
5 -3 70 -10 144 -17 128 -11 418 -49 525 -68 28 -5 57 -10 65 -11 34 -2 229
-31 273 -41 65 -14 70 -13 95 10 18 17 26 19 43 9 14 -7 24 -7 28 -1 3 5 16
13 29 17 15 4 21 12 18 22 -4 9 -1 13 6 11 7 -3 13 -9 13 -14 1 -5 4 -27 9
-48 5 -28 4 -41 -6 -47 -9 -6 -3 -9 16 -9 16 0 38 -8 48 -17 14 -12 21 -14 30
-5 11 11 8 24 -14 54 -18 25 -5 31 28 13 16 -8 37 -15 46 -15 32 0 29 -20 -6
-52 -20 -17 -36 -37 -36 -43 0 -6 16 -25 35 -44 37 -34 45 -61 20 -61 -9 0
-24 -13 -33 -30 -17 -31 -36 -42 -26 -16 7 17 -50 77 -92 99 -40 20 -163 51
-170 44 -4 -4 -8 -22 -10 -42 -3 -29 0 -35 16 -35 11 0 39 -7 62 -16 64 -25
192 -164 151 -164 -4 0 -18 11 -32 24 -46 42 -235 73 -260 42 -9 -11 -20 -12
-54 -3 -23 6 -46 16 -52 23 -5 7 -55 25 -110 39 -55 15 -136 37 -180 50 -104
30 -466 154 -485 167 -12 8 -12 9 3 4 120 -38 374 -95 507 -115 41 -7 90 -14
108 -17 31 -5 33 -4 27 18 -6 23 -6 23 10 3 13 -17 25 -19 74 -17 35 2 61 -1
65 -7 8 -13 106 -15 106 -2 0 4 -9 20 -21 35 -22 27 -57 34 -77 14 -9 -9 -12
-8 -12 5 0 14 -10 17 -62 17 -119 0 -433 56 -588 105 -237 74 -344 110 -395
135 -68 32 -60 36 41 16z m-266 -61 c0 -8 -4 -15 -10 -15 -5 0 -10 7 -10 15 0
8 5 15 10 15 6 0 10 -7 10 -15z m1574 -310 c3 -9 0 -15 -9 -15 -8 0 -15 7 -15
15 0 8 4 15 9 15 5 0 11 -7 15 -15z m96 -45 c0 -5 -4 -10 -10 -10 -5 0 -10 5
-10 10 0 6 5 10 10 10 6 0 10 -4 10 -10z"/>
<path d="M2400 5500 c0 -9 25 -20 47 -20 8 0 13 5 11 11 -5 14 -58 22 -58 9z"/>
<path d="M4730 6660 c0 -5 5 -10 10 -10 6 0 10 5 10 10 0 6 -4 10 -10 10 -5 0
-10 -4 -10 -10z"/>
<path d="M275 6568 c-69 -144 -80 -197 -80 -383 1 -165 20 -293 51 -342 8 -12
14 -29 14 -38 0 -23 37 -124 57 -154 9 -14 16 -27 15 -29 -3 -3 78 -164 90
-180 9 -10 14 -10 26 0 13 11 15 9 10 -15 -4 -23 2 -36 33 -68 21 -21 40 -36
43 -31 11 19 -20 152 -44 184 -43 57 -164 309 -192 398 -79 252 -78 491 2 683
15 37 26 67 24 67 -3 0 -25 -42 -49 -92z m-63 -460 c-9 -9 -12 -4 -11 23 0 32
1 33 11 11 8 -17 8 -26 0 -34z m90 -340 c-7 -7 -12 -8 -12 -2 0 14 12 26 19
19 2 -3 -1 -11 -7 -17z m145 -250 c-3 -8 -6 -5 -6 6 -1 11 2 17 5 13 3 -3 4
-12 1 -19z"/>
<path d="M2430 6377 c0 -111 8 -216 26 -336 l7 -44 -44 7 c-69 12 -173 25
-176 22 -2 -1 2 -17 7 -36 5 -19 7 -36 4 -39 -7 -8 -24 19 -31 52 -5 25 -9 27
-59 27 -41 0 -54 -4 -54 -15 0 -8 -5 -15 -11 -15 -6 0 -9 7 -5 15 3 8 1 15 -4
15 -11 0 -50 -54 -50 -69 0 -6 -4 -11 -10 -11 -15 0 -12 -23 5 -46 14 -18 15
-18 22 6 l7 25 6 -25 c4 -17 13 -26 30 -27 14 -2 49 -8 78 -15 44 -10 55 -10
62 2 7 11 11 11 24 1 9 -7 25 -11 36 -8 14 4 20 0 20 -12 0 -17 9 -21 118 -48
16 -4 22 -1 22 12 0 13 6 16 23 11 12 -3 28 -6 35 -6 9 0 11 -7 7 -21 -10 -29
14 -82 33 -74 15 5 72 -15 72 -26 0 -3 10 -18 23 -33 16 -18 29 -25 40 -20 20
7 21 16 6 31 -7 7 -3 19 14 39 13 16 29 39 36 52 10 18 9 22 -4 22 -9 0 -18
-7 -21 -15 -9 -21 -19 -19 -31 8 -14 31 7 53 30 30 8 -9 20 -12 27 -8 9 6 8
10 -4 17 -9 5 -16 19 -16 32 0 28 -23 49 -91 85 -48 24 -54 32 -60 67 -8 44
-41 367 -41 401 0 12 -7 24 -14 27 -19 7 -30 -14 -13 -25 10 -6 11 -11 3 -19
-17 -17 -47 17 -41 46 3 15 -4 30 -19 43 l-24 21 0 -123z m-110 -432 c-10 -12
-9 -15 8 -15 24 0 38 -30 20 -42 -17 -11 -28 -10 -28 2 0 5 -7 7 -15 4 -8 -4
-15 -1 -15 4 0 19 23 62 33 62 5 0 4 -7 -3 -15z m88 -74 c3 -8 -1 -12 -9 -9
-7 2 -15 10 -17 17 -3 8 1 12 9 9 7 -2 15 -10 17 -17z m285 -21 c3 -14 -1 -24
-15 -31 -27 -14 -34 -4 -18 26 16 30 26 32 33 5z m27 0 c0 -5 -4 -10 -10 -10
-5 0 -10 5 -10 10 0 6 5 10 10 10 6 0 10 -4 10 -10z"/>
<path d="M427 6086 c-6 -15 1 -26 15 -26 4 0 8 9 8 20 0 23 -15 27 -23 6z"/>
<path d="M1680 6085 c21 -26 173 -123 231 -148 100 -45 99 -45 99 7 0 25 5 48
10 51 6 3 10 13 10 21 0 20 -98 19 -129 -2 -21 -15 -26 -15 -77 5 -30 11 -75
34 -99 51 -48 33 -64 38 -45 15z"/>
<path d="M480 6005 c0 -41 11 -58 24 -37 8 13 -5 82 -15 82 -5 0 -9 -20 -9
-45z"/>
<path d="M540 5942 c0 -57 16 -78 26 -35 4 15 11 30 15 33 4 3 -3 16 -17 29
l-24 23 0 -50z"/>
<path d="M2973 5897 c1 -15 5 -27 10 -27 10 0 9 22 -2 39 -7 10 -9 7 -8 -12z"/>
<path d="M2770 5803 c0 -18 5 -35 11 -39 6 -3 9 -14 6 -24 -7 -28 8 -46 26
-32 19 16 6 77 -22 106 l-21 20 0 -31z"/>
<path d="M3641 5652 c-14 -26 -7 -42 10 -25 6 6 9 19 7 29 -3 17 -5 17 -17 -4z"/>
<path d="M3686 5595 c-20 -30 -23 -86 -4 -67 15 15 39 92 28 92 -4 0 -15 -11
-24 -25z"/>
<path d="M3346 5492 c-45 -50 -117 -284 -132 -425 -6 -64 -5 -69 12 -65 16 3
20 16 26 72 13 134 71 339 112 398 28 39 14 54 -18 20z"/>
<path d="M3150 5421 c0 -12 26 -32 33 -25 9 10 -4 34 -19 34 -8 0 -14 -4 -14
-9z"/>
<path d="M3550 5415 c-11 -13 -8 -15 25 -15 25 0 35 4 33 13 -7 18 -43 20 -58
2z"/>
<path d="M580 5360 c0 -12 8 -29 18 -36 10 -8 12 -13 4 -14 -8 0 -10 -9 -6
-27 4 -16 3 -25 -1 -21 -5 4 -14 3 -21 -3 -11 -9 -11 -15 2 -34 8 -13 24 -25
34 -28 14 -3 20 -14 20 -31 0 -38 27 -33 39 7 9 30 9 28 10 -24 1 -59 9 -71
62 -98 24 -12 30 -11 58 10 17 13 30 27 28 33 -6 19 -142 164 -154 165 -7 1
-13 5 -13 11 0 8 -55 87 -76 109 -2 2 -4 -6 -4 -19z m17 -142 c-3 -7 -5 -2 -5
12 0 14 2 19 5 13 2 -7 2 -19 0 -25z m33 2 c0 -5 -2 -10 -4 -10 -3 0 -8 5 -11
10 -3 6 -1 10 4 10 6 0 11 -4 11 -10z"/>
<path d="M2980 5360 c-13 -9 -13 -12 3 -25 23 -17 49 -9 45 14 -4 19 -28 25
-48 11z"/>
<path d="M3682 5347 c-9 -11 -7 -16 14 -25 34 -16 36 -15 32 10 -4 27 -30 35
-46 15z"/>
<path d="M3379 5283 c-11 -30 -4 -62 11 -47 5 5 13 24 16 42 8 40 -12 44 -27
5z"/>
<path d="M3530 5255 c-19 -23 -1 -39 21 -19 10 9 16 21 13 25 -8 13 -20 11
-34 -6z"/>
<path d="M2930 5245 c-7 -8 -9 -15 -4 -15 5 0 19 -3 32 -6 18 -5 22 -2 22 15
0 25 -31 29 -50 6z"/>
<path d="M3704 5215 c-16 -12 -16 -14 -3 -15 9 0 22 -7 30 -16 11 -13 14 -13
21 0 10 18 0 46 -16 46 -7 0 -21 -7 -32 -15z"/>
<path d="M3381 5161 c-7 -13 -6 -24 4 -37 15 -21 22 -18 25 11 5 48 -10 62
-29 26z"/>
<path d="M2885 5136 c-20 -14 -20 -15 3 -36 27 -26 46 -16 40 21 -4 28 -18 33
-43 15z"/>
<path d="M3038 5133 c-14 -17 -34 -93 -24 -93 2 0 19 18 37 41 28 35 30 42 17
55 -13 13 -16 12 -30 -3z"/>
<path d="M3575 5100 c-16 -16 -25 -33 -22 -37 8 -7 67 45 67 59 0 16 -17 8
-45 -22z"/>
<path d="M2760 5103 l-25 -18 45 -6 c54 -8 63 -4 50 22 -13 24 -38 24 -70 2z"/>
<path d="M3106 5084 c-3 -9 -6 -23 -6 -31 0 -13 3 -13 15 -3 16 13 21 50 6 50
-5 0 -12 -7 -15 -16z"/>
<path d="M3439 5033 c-68 -75 -73 -133 -22 -264 27 -69 48 -85 70 -56 11 13 9
97 -4 261 l-8 99 -36 -40z"/>
<path d="M3688 5043 c6 -2 18 -2 25 0 6 3 1 5 -13 5 -14 0 -19 -2 -12 -5z"/>
<path d="M2573 5020 c3 -11 1 -23 -5 -26 -5 -3 -14 -17 -19 -31 -7 -20 -6 -30
7 -44 15 -17 15 -19 1 -19 -21 0 -24 -6 -32 -72 -7 -57 -7 -58 18 -58 23 0 26
5 31 43 3 23 10 80 15 126 6 46 8 87 5 92 -10 17 -26 9 -21 -11z"/>
<path d="M2748 5009 c-26 -15 -23 -41 5 -37 14 2 23 11 25 26 4 24 -4 27 -30
11z"/>
<path d="M3032 4987 c-9 -11 -7 -18 9 -33 17 -16 22 -16 30 -4 21 34 -14 67
-39 37z"/>
<path d="M3211 4885 l-2 -85 26 0 c18 0 25 5 25 19 0 10 -7 22 -15 25 -12 4
-13 10 -6 25 6 10 8 21 5 23 -2 3 -5 22 -6 42 -1 20 -6 36 -13 36 -7 0 -12
-29 -14 -85z"/>
<path d="M4501 4948 c-25 -16 -47 -21 -85 -19 -40 1 -58 -3 -80 -20 -15 -11
-25 -26 -23 -32 6 -19 98 -7 153 19 61 29 76 29 132 4 47 -21 50 -32 26 -103
l-16 -46 43 -81 c51 -99 88 -130 150 -129 l44 1 -35 15 c-44 19 -67 39 -96 84
-35 56 -56 140 -52 215 3 61 1 68 -23 86 -39 29 -97 32 -138 6z"/>
<path d="M2821 4916 c-7 -9 -11 -20 -9 -25 4 -13 51 10 50 24 -1 16 -28 17
-41 1z"/>
<path d="M3591 4906 c-6 -7 -8 -21 -5 -30 6 -15 9 -15 30 5 13 12 24 26 24 31
0 13 -37 9 -49 -6z"/>
<path d="M3712 4899 c2 -6 8 -10 13 -10 5 0 11 4 13 10 2 6 -4 11 -13 11 -9 0
-15 -5 -13 -11z"/>
<path d="M1480 4856 c-68 -15 -111 -37 -172 -88 l-48 -40 -37 31 c-21 17 -43
31 -50 31 -11 0 -63 -60 -63 -73 0 -3 21 -20 46 -38 42 -28 46 -35 41 -63 -3
-22 1 -39 14 -55 10 -13 19 -33 19 -45 1 -19 1 -20 11 -3 6 10 8 30 4 45 -4
15 -9 47 -11 71 -4 43 -2 47 47 93 98 92 217 125 391 109 151 -15 236 -40 384
-112 85 -42 220 -134 258 -177 11 -12 26 -22 35 -22 18 0 -83 98 -174 167
-189 143 -486 216 -695 169z"/>
<path d="M3020 4852 c0 -5 7 -15 15 -22 12 -10 19 -10 27 -2 14 14 11 17 -19
26 -13 4 -23 3 -23 -2z"/>
<path d="M4208 4853 c-38 -4 -209 -101 -216 -123 -6 -18 33 -4 98 36 30 18 75
36 100 40 25 4 58 13 73 21 29 14 28 34 -1 31 -9 -1 -34 -3 -54 -5z"/>
<path d="M3780 4835 c-15 -18 -9 -50 10 -50 9 0 15 12 17 33 3 34 -7 41 -27
17z"/>
<path d="M4456 4819 c-33 -26 -52 -59 -34 -59 14 0 73 68 66 76 -3 2 -17 -5
-32 -17z"/>
<path d="M2896 4758 c-47 -55 -61 -101 -47 -153 17 -62 26 -72 51 -57 20 12
110 17 110 5 0 -3 -7 -15 -17 -25 -15 -17 -15 -18 0 -18 10 0 17 -4 17 -10 0
-5 11 -10 25 -10 14 0 25 2 25 5 0 3 -21 46 -46 96 -25 50 -50 118 -56 150 -5
33 -14 59 -18 59 -5 0 -25 -19 -44 -42z"/>
<path d="M3108 4789 c-24 -14 -23 -25 4 -32 22 -6 38 6 38 31 0 14 -18 15 -42
1z"/>
<path d="M2727 4783 c-12 -11 -8 -23 7 -23 8 0 16 -6 19 -12 3 -10 7 -10 17
-1 7 6 10 19 7 27 -6 16 -38 22 -50 9z"/>
<path d="M2995 4779 c-9 -14 3 -59 15 -59 6 0 10 16 10 35 0 34 -12 46 -25 24z"/>
<path d="M3219 4783 c-5 -48 4 -100 22 -112 16 -11 19 -26 19 -90 0 -42 4 -81
8 -88 9 -14 4 166 -6 242 -5 36 -12 51 -25 53 -9 2 -17 0 -18 -5z"/>
<path d="M2521 4600 c2 -85 7 -172 12 -194 17 -71 46 -170 56 -185 11 -17 81
-6 81 13 0 7 -13 42 -29 77 -39 86 -60 188 -68 320 -3 60 -10 109 -14 109 -4
0 -15 3 -24 6 -15 6 -16 -7 -14 -146z"/>
<path d="M3583 4716 c-24 -25 -28 -36 -15 -36 5 0 18 14 30 30 27 36 16 40
-15 6z"/>
<path d="M4290 4720 c0 -5 6 -10 14 -10 8 0 18 5 21 10 3 6 -3 10 -14 10 -12
0 -21 -4 -21 -10z"/>
<path d="M4386 4699 c-26 -20 -34 -53 -17 -63 8 -6 71 64 71 78 0 13 -29 5
-54 -15z"/>
<path d="M3870 4690 c0 -5 5 -10 10 -10 6 0 10 5 10 10 0 6 -4 10 -10 10 -5 0
-10 -4 -10 -10z"/>
<path d="M3453 4671 c2 -11 -4 -50 -14 -88 -11 -37 -21 -95 -22 -128 -1 -33
-7 -65 -13 -72 -13 -14 -28 -82 -20 -90 19 -19 36 18 66 139 18 73 33 140 34
148 1 8 8 32 15 54 15 42 7 56 -33 56 -13 0 -17 -5 -13 -19z"/>
<path d="M2746 4661 c-16 -18 -16 -19 10 -25 27 -7 44 5 44 32 0 19 -35 14
-54 -7z"/>
<path d="M3082 4658 c-16 -16 -15 -28 3 -28 8 0 20 -9 27 -20 18 -28 28 -25
28 8 0 29 -16 52 -35 52 -6 0 -16 -5 -23 -12z"/>
<path d="M4067 4578 c-59 -46 -131 -101 -161 -123 -30 -22 -59 -50 -65 -62 -6
-13 -15 -23 -20 -23 -12 0 -41 -29 -41 -41 0 -5 8 -9 18 -9 9 0 26 -7 36 -15
11 -8 24 -15 29 -15 5 0 50 41 100 90 78 78 95 90 121 88 16 -2 31 2 33 10 3
6 -2 12 -11 12 -23 0 -20 13 10 41 22 20 74 107 74 124 0 14 -25 -2 -123 -77z"/>
<path d="M3660 4640 c0 -5 4 -10 9 -10 6 0 13 5 16 10 3 6 -1 10 -9 10 -9 0
-16 -4 -16 -10z"/>
<path d="M4246 4621 c-3 -5 1 -11 9 -15 8 -3 15 -1 15 4 0 13 -18 22 -24 11z"/>
<path d="M4507 4615 c-71 -27 -240 -120 -271 -150 -17 -16 -51 -40 -76 -54
-57 -30 -221 -143 -216 -148 2 -2 54 27 114 65 133 83 271 145 451 202 72 23
130 45 127 47 -8 8 -144 -28 -241 -64 -102 -37 -98 -36 -90 -23 8 13 148 83
198 100 21 7 64 13 95 14 32 0 56 5 55 11 -4 16 -104 16 -146 0z"/>
<path d="M3838 4593 c-7 -16 -30 -57 -51 -93 -22 -36 -41 -68 -43 -72 -3 -4 0
-9 5 -13 6 -3 28 26 51 65 52 88 74 140 60 140 -6 0 -16 -12 -22 -27z"/>
<path d="M3626 4601 c-4 -7 -5 -15 -2 -18 9 -9 19 4 14 18 -4 11 -6 11 -12 0z"/>
<path d="M3920 4575 c-7 -9 -11 -18 -8 -20 3 -3 11 1 18 10 7 9 11 18 8 20 -3
3 -11 -1 -18 -10z"/>
<path d="M2160 4559 c12 -22 71 -61 80 -53 6 7 -66 74 -80 74 -7 0 -7 -7 0
-21z"/>
<path d="M2750 4560 c0 -5 9 -10 20 -10 11 0 20 5 20 10 0 6 -9 10 -20 10 -11
0 -20 -4 -20 -10z"/>
<path d="M4180 4555 c-13 -16 -6 -35 15 -35 12 0 25 21 25 41 0 14 -26 11 -40
-6z"/>
<path d="M3560 4505 c-8 -9 -8 -15 -2 -15 12 0 26 19 19 26 -2 2 -10 -2 -17
-11z"/>
<path d="M4606 4512 c-3 -6 -1 -14 5 -17 15 -10 25 3 12 16 -7 7 -13 7 -17 1z"/>
<path d="M4908 4472 c-31 -32 -41 -62 -29 -81 7 -11 16 -1 37 42 14 32 25 60
22 62 -2 3 -16 -8 -30 -23z"/>
<path d="M1200 4460 c-15 -16 -45 -33 -70 -40 -79 -21 -92 -31 -106 -85 -20
-77 -18 -108 11 -133 14 -12 29 -22 33 -22 4 0 13 -9 20 -20 7 -11 38 -32 69
-45 56 -25 57 -25 92 -8 l36 18 -30 3 c-16 2 -40 13 -52 24 -22 21 -23 21 -43
3 -18 -16 -20 -16 -26 -1 -4 9 -4 20 -1 23 9 9 -12 43 -26 43 -7 0 -19 9 -27
20 -8 11 -22 20 -32 20 -10 0 -18 3 -18 7 0 20 35 111 41 107 4 -2 10 -1 13 4
6 10 120 -3 191 -21 47 -13 50 -15 48 -43 l-3 -29 12 25 c7 14 12 26 12 27 1
3 91 -23 121 -36 17 -6 51 -23 77 -37 35 -19 52 -23 65 -15 14 8 0 18 -79 55
-53 25 -105 46 -116 46 -12 0 -24 5 -27 10 -3 6 -19 10 -35 10 -16 0 -31 4
-34 9 -3 4 -33 14 -66 20 l-61 12 22 35 c27 44 22 50 -11 14z"/>
<path d="M3622 4474 c-21 -15 -31 -44 -14 -44 5 0 21 14 37 30 31 33 17 42
-23 14z"/>
<path d="M3030 4450 c-14 -4 -35 -5 -46 -3 -34 7 -37 -14 -7 -46 15 -16 41
-51 56 -77 26 -43 30 -46 44 -31 20 20 24 97 7 137 -14 32 -15 32 -54 20z"/>
<path d="M2374 4439 c-7 -12 44 -69 63 -69 21 0 15 37 -9 60 -24 22 -43 26
-54 9z"/>
<path d="M2200 4430 c0 -14 48 -43 60 -35 15 9 12 32 -6 39 -24 9 -54 7 -54
-4z"/>
<path d="M2795 4430 c-3 -5 3 -10 14 -10 12 0 21 5 21 10 0 6 -6 10 -14 10 -8
0 -18 -4 -21 -10z"/>
<path d="M4450 4420 c0 -5 4 -10 9 -10 6 0 13 5 16 10 3 6 -1 10 -9 10 -9 0
-16 -4 -16 -10z"/>
<path d="M3278 4393 c5 -21 7 -23 10 -9 2 10 0 22 -6 28 -6 6 -7 0 -4 -19z"/>
<path d="M2025 4385 c26 -21 65 -34 65 -21 0 8 -67 46 -81 46 -8 0 0 -11 16
-25z"/>
<path d="M4544 4395 c-18 -14 -18 -14 9 -15 15 0 27 4 27 9 0 18 -17 20 -36 6z"/>
<path d="M3706 4368 c-9 -12 -16 -34 -16 -47 0 -24 1 -24 25 9 26 35 32 60 16
60 -6 0 -17 -10 -25 -22z"/>
<path d="M4253 4373 c-7 -2 -13 -9 -13 -15 0 -14 43 -6 48 10 4 12 -12 15 -35
5z"/>
<path d="M2350 4355 c0 -7 13 -23 29 -34 49 -35 71 -23 29 16 -31 27 -58 36
-58 18z"/>
<path d="M2903 4362 c-8 -5 -8 -12 3 -26 12 -18 14 -18 20 -2 8 21 -6 38 -23
28z"/>
<path d="M4362 4358 c-17 -17 -15 -28 6 -28 19 0 42 18 42 32 0 12 -35 9 -48
-4z"/>
<path d="M4685 4342 c-17 -11 -50 -42 -74 -71 -43 -51 -103 -91 -138 -91 -10
0 -49 -33 -87 -72 -114 -121 -107 -118 -255 -111 -151 7 -166 12 -119 41 44
27 85 68 109 107 25 39 24 41 -9 48 -69 14 -286 -52 -279 -85 1 -6 -15 -16
-36 -21 -43 -10 -80 -55 -75 -90 3 -21 7 -22 73 -20 39 1 88 8 110 16 24 9 48
11 61 6 12 -4 86 -19 164 -34 177 -32 248 -57 409 -140 353 -185 580 -407 715
-700 20 -44 57 -106 82 -137 84 -107 101 -184 79 -347 -6 -46 -11 -54 -50 -81
-23 -16 -57 -51 -74 -76 -36 -55 -39 -97 -15 -200 27 -118 5 -112 -161 46 -81
77 -134 118 -180 141 -63 31 -72 32 -233 39 -155 7 -180 11 -362 58 -107 27
-229 57 -270 67 -206 47 -360 126 -494 253 -89 85 -139 158 -246 363 -56 107
-116 212 -134 234 -52 64 -53 68 -17 60 25 -5 31 -3 31 10 0 12 5 15 16 11 9
-3 24 -6 33 -6 10 0 23 -10 29 -22 6 -13 11 -17 11 -10 1 16 28 15 38 -2 4 -8
37 -23 73 -34 100 -31 161 -53 205 -75 61 -29 164 -57 171 -46 8 13 10 12 -64
39 -34 12 -82 38 -105 56 -47 38 -73 42 -93 17 -12 -16 -13 -13 -14 22 0 38
-3 42 -57 75 -120 72 -195 103 -251 104 -40 1 -57 -3 -66 -16 -7 -10 -18 -18
-24 -18 -6 0 -18 -10 -27 -22 -15 -22 -14 -24 17 -50 l32 -28 -22 -29 c-12
-17 -22 -33 -22 -36 0 -3 15 -27 33 -53 39 -56 146 -226 166 -265 9 -17 23
-27 36 -27 35 0 51 -26 38 -61 -8 -22 -8 -31 0 -36 7 -5 20 -24 30 -44 10 -20
40 -58 67 -86 48 -50 73 -109 111 -266 18 -74 7 -199 -26 -292 -36 -101 -36
-166 -1 -305 31 -124 33 -211 8 -278 -16 -42 -17 -52 -5 -67 9 -13 10 -22 3
-29 -5 -5 -10 -44 -10 -85 -1 -60 -3 -72 -12 -57 -7 12 -8 46 -4 93 3 40 3 73
0 73 -14 0 -44 -91 -44 -135 0 -99 9 -124 51 -146 21 -10 46 -30 55 -44 9 -14
21 -25 26 -25 13 0 47 80 58 142 9 46 8 55 -7 66 -17 12 -17 14 4 30 16 12 22
27 22 52 -1 19 8 54 19 78 14 31 18 57 15 90 -7 73 -21 102 -50 102 -23 0 -24
-2 -18 -39 7 -41 -7 -63 -27 -43 -14 14 -21 182 -8 182 6 0 13 -7 16 -15 12
-29 26 -16 19 18 -4 17 -7 47 -7 65 1 21 -4 32 -14 32 -9 0 -14 -11 -14 -29 0
-42 -17 -47 -28 -9 -42 139 -41 239 3 373 31 93 28 150 -10 273 -13 39 -19 72
-14 72 5 0 32 -16 60 -35 28 -19 55 -35 60 -35 5 0 9 -7 9 -16 0 -11 6 -13 19
-9 11 3 22 1 26 -5 3 -5 14 -10 24 -10 10 0 28 -11 41 -25 15 -16 30 -23 42
-19 24 7 125 -26 108 -36 -25 -15 12 -47 74 -65 58 -16 71 -21 114 -45 9 -5
56 -21 105 -35 71 -21 87 -29 87 -45 0 -22 23 -26 63 -11 18 7 32 5 54 -9 36
-21 53 -11 53 31 0 41 10 59 32 59 18 0 20 -5 16 -44 -3 -26 0 -53 8 -67 7
-13 13 -36 14 -51 0 -33 15 -36 30 -8 6 11 19 20 30 20 27 0 63 -55 56 -85 -5
-19 1 -29 29 -51 31 -24 38 -25 64 -14 31 12 56 6 45 -11 -3 -6 -17 -14 -31
-20 -13 -5 -21 -13 -18 -19 4 -6 24 0 50 16 25 14 49 23 55 19 13 -8 13 -35 0
-35 -5 0 -10 -7 -10 -15 0 -8 5 -15 10 -15 6 0 10 7 10 15 0 20 29 19 51 -1
10 -9 33 -19 51 -23 32 -7 33 -8 33 -58 0 -60 6 -69 33 -52 30 19 111 -23 119
-62 7 -37 27 -37 42 -1 14 35 31 126 31 168 0 20 12 52 30 80 38 61 45 113 25
196 -20 86 -7 122 56 164 29 19 52 46 68 78 22 43 24 62 25 180 1 124 0 134
-26 181 -15 28 -47 77 -72 110 -25 33 -73 112 -107 176 -94 179 -180 284 -356
432 -98 83 -185 137 -261 162 -74 26 -346 128 -352 132 -3 3 6 14 20 26 14 12
36 37 48 55 25 34 88 72 121 72 11 0 100 -27 199 -60 184 -61 217 -67 412 -75
58 -2 150 -9 205 -16 55 -6 180 -13 278 -16 157 -4 178 -3 183 12 4 9 4 19 0
22 -3 3 -86 19 -183 35 -163 27 -185 33 -268 75 -94 47 -266 155 -347 218 -41
31 -50 34 -69 24 -13 -7 -39 -9 -63 -5 -23 3 -57 9 -76 12 -24 3 -44 -1 -65
-14z m106 -33 c29 -9 42 -9 52 -1 13 11 21 7 149 -80 15 -10 29 -18 32 -18 2
0 44 -25 92 -56 l89 -56 -45 6 c-25 4 -90 11 -145 17 -55 5 -117 12 -137 15
-25 4 -44 1 -58 -9 -31 -22 -74 -5 -94 38 -14 29 -24 35 -71 46 -30 7 -55 13
-55 15 0 30 86 94 128 94 14 0 42 -5 63 -11z m-1583 -653 c6 -4 12 -14 12 -21
0 -11 -8 -13 -32 -8 -35 7 -53 23 -37 34 12 7 41 5 57 -5z m232 -120 c0 -3 -4
-8 -10 -11 -5 -3 -10 -1 -10 4 0 6 5 11 10 11 6 0 10 -2 10 -4z m-290 -47 c0
-6 -4 -7 -10 -4 -5 3 -10 11 -10 16 0 6 5 7 10 4 6 -3 10 -11 10 -16z m260
-469 c0 -5 -4 -10 -10 -10 -5 0 -10 5 -10 10 0 6 5 10 10 10 6 0 10 -4 10 -10z
m987 -492 c37 -35 26 -88 -19 -88 -46 0 -78 78 -40 99 25 15 33 13 59 -11z
m-87 -8 c0 -5 -4 -10 -9 -10 -6 0 -13 5 -16 10 -3 6 1 10 9 10 9 0 16 -4 16
-10z m569 -92 c12 -21 31 -33 75 -47 46 -14 71 -30 123 -82 74 -73 90 -96 75
-111 -7 -7 -16 -1 -27 16 -10 14 -21 23 -26 20 -5 -3 -33 14 -62 39 -65 54
-137 96 -162 94 -12 -1 -21 5 -23 18 -2 11 -20 34 -40 52 l-37 32 44 -2 c37
-1 47 -6 60 -29z"/>
<path d="M2110 4326 c0 -7 14 -19 30 -26 17 -7 30 -16 30 -19 0 -11 79 -61 95
-61 8 0 19 -8 24 -17 10 -17 12 -17 26 1 8 11 15 23 15 27 0 11 -43 19 -70 12
-21 -5 -23 -4 -13 9 11 13 7 18 -25 34 -20 10 -48 27 -61 37 -28 20 -51 22
-51 3z"/>
<path d="M4462 4308 c-18 -18 -14 -28 8 -28 11 0 20 6 20 14 0 21 -15 27 -28
14z"/>
<path d="M2476 4302 c-2 -4 -1 -14 4 -21 10 -17 31 -5 23 14 -6 16 -19 20 -27
7z"/>
<path d="M4189 4281 c-13 -11 -20 -23 -16 -27 4 -4 17 2 29 14 28 28 18 38
-13 13z"/>
<path d="M2805 4277 c-8 -20 21 -71 35 -62 15 10 12 31 -9 56 -18 22 -20 22
-26 6z"/>
<path d="M4074 4276 c-22 -17 -11 -35 13 -20 19 12 29 34 16 34 -5 0 -18 -6
-29 -14z"/>
<path d="M1320 4263 c0 -10 13 -27 28 -38 35 -26 163 -28 188 -3 14 14 7 16
-66 21 -48 3 -90 12 -105 21 -31 21 -45 20 -45 -1z"/>
<path d="M2971 4251 c-38 -35 -40 -57 -5 -64 32 -6 94 12 94 28 0 15 -38 65
-50 65 -4 0 -22 -13 -39 -29z"/>
<path d="M3352 4227 c-25 -59 -26 -67 -12 -67 11 0 50 72 50 94 0 34 -18 22
-38 -27z"/>
<path d="M3636 4235 c-20 -30 -20 -35 -2 -35 14 0 46 36 46 52 0 17 -29 6 -44
-17z"/>
<path d="M4300 4240 c-17 -10 -14 -15 18 -25 19 -6 23 -4 20 11 -4 21 -18 27
-38 14z"/>
<path d="M1603 4225 c-45 -19 -41 -35 7 -35 23 0 54 -7 70 -15 22 -11 35 -12
59 -4 58 21 24 57 -42 45 -19 -3 -30 0 -34 10 -6 17 -19 17 -60 -1z"/>
<path d="M2358 4203 c-27 -4 -44 -28 -27 -39 5 -3 33 0 62 6 82 19 85 21 62
30 -21 9 -52 10 -97 3z"/>
<path d="M2638 4187 c-25 -21 -26 -24 -12 -49 17 -32 6 -36 -31 -12 -15 10
-46 16 -75 16 -47 0 -65 10 -37 21 7 4 6 6 -4 6 -9 1 -22 -6 -29 -14 -8 -9
-30 -15 -57 -15 -59 0 -53 -15 26 -61 34 -20 70 -43 79 -52 15 -16 15 -17 -5
-17 -17 0 -20 -5 -16 -21 5 -18 3 -20 -14 -15 -14 4 -23 1 -27 -9 -4 -11 2
-15 25 -15 17 0 32 -6 35 -15 7 -18 61 -20 67 -2 3 9 7 9 18 0 8 -6 46 -13 86
-14 59 -3 75 0 92 15 29 26 28 74 -1 85 -14 5 -17 10 -10 15 21 13 13 24 -15
21 -50 -5 -88 -17 -100 -33 -12 -14 -13 -13 -13 5 0 29 19 46 69 63 38 12 56
30 30 30 -5 0 -8 4 -4 9 7 13 -26 81 -39 81 -6 -1 -23 -11 -38 -23z m-108
-227 c0 -5 -5 -10 -11 -10 -5 0 -7 5 -4 10 3 6 8 10 11 10 2 0 4 -4 4 -10z"/>
<path d="M2968 4149 c-21 -22 -22 -35 -7 -78 8 -21 17 -31 32 -31 22 -1 22 -1
3 -15 -19 -15 -19 -16 -2 -72 24 -75 58 -141 92 -176 23 -25 28 -27 41 -14 13
13 11 37 -21 202 -20 102 -36 191 -36 196 0 18 -84 8 -102 -12z"/>
<path d="M4215 4159 c-11 -17 1 -21 15 -4 8 9 8 15 2 15 -6 0 -14 -5 -17 -11z"/>
<path d="M2145 4140 c-3 -5 -1 -10 4 -10 6 0 11 5 11 10 0 6 -2 10 -4 10 -3 0
-8 -4 -11 -10z"/>
<path d="M1767 4110 c-13 -62 -108 -76 -290 -41 -59 11 -114 18 -121 15 -8 -3
-23 -1 -33 4 -12 6 -28 5 -47 -3 -27 -12 -28 -13 -10 -22 41 -22 194 -52 292
-58 118 -8 178 4 216 42 26 26 21 26 123 -18 24 -11 50 -19 58 -19 8 0 15 -4
15 -10 0 -5 18 -15 39 -21 42 -12 60 -37 39 -51 -7 -4 -29 -12 -48 -18 -19 -5
-46 -17 -60 -27 -14 -10 -35 -16 -47 -15 -12 2 -34 -4 -50 -12 l-28 -15 25 -1
c24 -1 23 -2 -8 -18 -25 -12 -35 -13 -40 -5 -6 9 -19 5 -49 -11 -27 -16 -58
-24 -89 -24 -55 -1 -151 -34 -347 -119 -90 -39 -124 -59 -115 -65 9 -6 6 -7
-9 -3 -19 5 -38 -3 -113 -44 -8 -5 -27 -14 -42 -20 -20 -7 -26 -15 -21 -27 5
-14 3 -16 -11 -11 -25 10 -66 -3 -66 -20 0 -10 -6 -13 -16 -9 -10 4 -36 -5
-62 -20 -40 -24 -43 -28 -29 -39 22 -16 21 -25 -2 -25 -11 0 -23 -4 -26 -10
-4 -6 -13 -5 -25 2 -16 10 -23 8 -47 -17 -29 -32 -39 -60 -23 -70 15 -9 202
97 208 118 3 12 10 16 23 12 14 -5 19 -1 19 14 0 12 5 21 10 21 6 0 10 8 10
18 1 14 4 13 20 -6 20 -24 40 -22 40 4 0 14 15 18 56 15 11 -1 27 5 34 13 7 9
20 16 29 16 9 0 34 14 55 32 31 25 48 32 91 33 l52 3 -35 -33 -35 -32 19 -26
c14 -19 28 -26 52 -27 40 0 44 25 7 42 -14 6 -24 16 -22 22 2 5 40 30 85 54
44 25 80 50 79 55 -1 6 14 14 33 17 19 4 91 34 160 68 125 62 287 122 455 168
50 14 101 28 115 32 14 4 25 14 25 22 0 21 -60 30 -85 13 -11 -8 -25 -11 -30
-8 -6 3 -10 1 -10 -4 0 -6 -11 -11 -25 -11 -32 0 -32 13 0 30 30 16 27 21 -31
55 -38 23 -48 25 -61 13 -14 -11 -16 -11 -11 3 5 12 -4 21 -35 34 -23 10 -71
31 -106 46 -85 39 -117 38 -124 -1z m268 -110 c-3 -5 -12 -10 -18 -10 -7 0 -6
4 3 10 19 12 23 12 15 0z m50 -20 c3 -5 -1 -10 -9 -10 -9 0 -16 5 -16 10 0 6
4 10 9 10 6 0 13 -4 16 -10z m-85 -115 c0 -8 -4 -15 -10 -15 -5 0 -10 7 -10
15 0 8 5 15 10 15 6 0 10 -7 10 -15z m-345 -133 c-11 -3 -22 -7 -25 -11 -8
-10 -49 -31 -61 -31 -16 0 -5 25 12 25 8 1 27 8 44 17 16 9 34 13 40 10 5 -4
1 -8 -10 -10z m-275 -92 c0 -5 -9 -10 -21 -10 -11 0 -17 5 -14 10 3 6 13 10
21 10 8 0 14 -4 14 -10z m-238 -93 c-12 -13 -22 -28 -22 -34 0 -6 -11 -8 -25
-6 -24 5 -24 6 -7 29 16 22 32 30 61 33 10 1 8 -6 -7 -22z m-262 -149 c0 -16
-3 -19 -11 -11 -6 6 -8 16 -5 22 11 17 16 13 16 -11z"/>
<path d="M2270 4095 c0 -18 31 -35 66 -35 l27 0 -23 25 c-26 27 -70 34 -70 10z"/>
<path d="M4205 4090 c3 -5 10 -10 16 -10 5 0 9 5 9 10 0 6 -7 10 -16 10 -8 0
-12 -4 -9 -10z"/>
<path d="M3570 4080 c0 -5 4 -10 9 -10 6 0 13 5 16 10 3 6 -1 10 -9 10 -9 0
-16 -4 -16 -10z"/>
<path d="M3265 4052 c-6 -4 -23 -25 -39 -47 -24 -32 -25 -36 -7 -20 22 19 66
75 59 75 -2 0 -8 -4 -13 -8z"/>
<path d="M3547 4035 c-4 -8 -24 -23 -45 -34 -56 -29 -101 -69 -133 -120 -31
-47 -30 -61 3 -61 57 0 171 83 220 159 35 56 37 77 7 59 -17 -10 -23 -10 -26
0 -6 16 -20 15 -26 -3z"/>
<path d="M2398 3998 c9 -9 15 -9 24 0 9 9 7 12 -12 12 -19 0 -21 -3 -12 -12z"/>
<path d="M2341 3941 c-8 -5 -20 -7 -28 -4 -7 3 -13 0 -13 -6 0 -7 29 -11 83
-11 62 1 78 3 64 11 -10 6 -25 8 -32 5 -8 -3 -17 -1 -20 4 -8 12 -35 13 -54 1z"/>
<path d="M4077 3894 c-16 -17 -5 -25 31 -22 20 2 37 8 37 13 0 12 -57 19 -68
9z"/>
<path d="M3677 3883 c-15 -14 -6 -23 23 -23 32 0 40 14 14 24 -20 8 -29 8 -37
-1z"/>
<path d="M3814 3876 c-14 -11 -16 -18 -8 -26 17 -17 54 -2 54 21 0 23 -19 25
-46 5z"/>
<path d="M3962 3859 c-13 -5 -21 -13 -17 -18 7 -12 47 1 53 17 4 14 -4 14 -36
1z"/>
<path d="M2402 3830 c-28 -18 -46 -60 -24 -60 9 0 65 70 60 75 -2 2 -18 -5
-36 -15z"/>
<path d="M2552 3830 c-16 -26 -15 -30 6 -30 21 0 42 18 42 37 0 20 -34 15 -48
-7z"/>
<path d="M4082 3808 c-22 -22 -13 -38 22 -38 39 0 53 14 36 35 -15 18 -42 19
-58 3z"/>
<path d="M4383 3798 c-24 -31 -24 -38 3 -48 37 -14 64 -4 64 25 0 32 -47 49
-67 23z"/>
<path d="M3801 3786 c-18 -21 10 -39 43 -26 29 11 34 25 10 34 -25 9 -41 7
-53 -8z"/>
<path d="M4225 3790 c-4 -6 5 -10 20 -10 15 0 24 4 20 10 -3 6 -12 10 -20 10
-8 0 -17 -4 -20 -10z"/>
<path d="M2128 3774 c-39 -21 -35 -29 15 -29 35 0 42 4 42 20 0 25 -22 29 -57
9z"/>
<path d="M3616 3775 c-4 -12 3 -15 29 -15 24 0 35 5 35 15 0 10 -10 15 -29 15
-16 0 -31 -6 -35 -15z"/>
<path d="M2277 3762 c-10 -10 -17 -24 -17 -30 0 -14 44 -27 59 -17 15 8 14 38
-1 53 -16 16 -22 15 -41 -6z"/>
<path d="M2873 3760 c-23 -5 -210 -92 -252 -117 -2 -2 3 -11 12 -21 10 -10 17
-22 17 -25 0 -13 -38 -7 -43 7 -5 11 -14 12 -47 5 -52 -12 -100 -36 -100 -50
0 -6 -6 -9 -14 -6 -21 8 -193 -78 -208 -103 -7 -12 -30 -30 -50 -41 -38 -19
-76 -64 -65 -76 4 -3 37 8 74 24 55 25 68 35 70 54 0 13 1 30 2 37 2 20 37 14
53 -10 l15 -22 103 39 c57 22 112 47 123 58 11 11 25 16 37 12 10 -3 27 -2 37
4 10 5 31 12 46 16 23 5 27 10 22 26 -6 18 -4 19 22 12 33 -9 47 -8 135 2 55
6 72 5 92 -8 21 -14 26 -14 36 -2 6 7 10 26 8 41 -2 21 -10 30 -33 36 -34 10
-123 2 -196 -17 -27 -7 -47 -9 -43 -4 3 5 11 9 19 9 22 0 179 76 194 94 13 15
13 19 0 27 -16 10 -22 10 -66 -1z m-270 -187 c-7 -2 -19 -2 -25 0 -7 3 -2 5
12 5 14 0 19 -2 13 -5z m-84 -49 c3 -16 1 -17 -13 -5 -19 16 -21 34 -3 29 6
-3 14 -13 16 -24z m-69 -8 c0 -18 -17 -29 -30 -21 -8 5 -7 11 1 21 15 18 29
18 29 0z"/>
<path d="M3483 3763 c-18 -7 -16 -30 2 -37 8 -3 28 -1 43 5 26 10 26 11 8 25
-20 14 -32 16 -53 7z"/>
<path d="M1915 3730 c-22 -23 -26 -33 -17 -42 13 -13 32 -1 63 44 20 27 20 28
2 28 -11 0 -32 -14 -48 -30z"/>
<path d="M3932 3748 c5 -15 78 -24 78 -10 0 13 -25 22 -57 22 -15 0 -23 -5
-21 -12z"/>
<path d="M2530 3735 c-10 -12 -6 -17 22 -28 27 -12 35 -12 47 -1 12 11 12 16
1 28 -16 20 -54 21 -70 1z"/>
<path d="M4560 3706 c0 -8 14 -19 30 -25 24 -8 30 -7 30 4 0 14 -29 35 -49 35
-6 0 -11 -6 -11 -14z"/>
<path d="M2383 3685 c-26 -23 -26 -26 -10 -36 9 -5 17 -18 17 -27 0 -12 11 -4
35 23 30 36 32 41 18 53 -23 17 -28 16 -60 -13z"/>
<path d="M3335 3700 c-3 -5 37 -34 88 -64 109 -64 147 -80 159 -68 8 8 -215
142 -235 142 -3 0 -8 -4 -12 -10z"/>
<path d="M3740 3690 c0 -20 15 -25 44 -14 13 5 14 9 5 20 -18 21 -49 17 -49
-6z"/>
<path d="M4083 3693 c-26 -10 -13 -33 18 -33 24 0 30 4 27 17 -3 18 -24 26
-45 16z"/>
<path d="M4217 3693 c-13 -12 -7 -21 23 -33 38 -16 49 -7 25 20 -18 20 -36 25
-48 13z"/>
<path d="M3600 3667 c0 -16 34 -29 56 -20 24 9 10 28 -24 31 -23 2 -32 -1 -32
-11z"/>
<path d="M4354 3669 c-9 -16 25 -41 51 -37 12 2 20 11 20 23 0 15 -8 21 -32
23 -17 2 -34 -2 -39 -9z"/>
<path d="M3892 3658 c7 -19 38 -22 38 -4 0 10 -9 16 -21 16 -12 0 -19 -5 -17
-12z"/>
<path d="M2032 3648 c-18 -18 -15 -25 12 -30 26 -5 46 7 46 29 0 16 -42 17
-58 1z"/>
<path d="M1703 3610 c-39 -23 -42 -40 -9 -40 14 0 28 -5 31 -10 6 -10 64 46
65 63 0 14 -56 6 -87 -13z"/>
<path d="M3977 3623 c-4 -3 -7 -10 -7 -14 0 -13 76 -33 96 -25 16 6 16 8 -1
26 -18 19 -74 28 -88 13z"/>
<path d="M3773 3613 c-22 -8 -14 -21 19 -32 38 -13 58 -1 38 24 -12 15 -33 18
-57 8z"/>
<path d="M2227 3603 c-15 -15 -5 -23 28 -23 24 0 35 5 35 15 0 15 -50 22 -63
8z"/>
<path d="M4171 3586 c-14 -17 10 -39 35 -34 27 5 27 23 0 36 -19 8 -27 8 -35
-2z"/>
<path d="M4675 3580 c-3 -5 9 -17 26 -26 26 -13 33 -13 40 -3 4 7 3 19 -3 26
-12 15 -54 17 -63 3z"/>
<path d="M1886 3565 c-24 -24 -19 -37 12 -33 19 2 27 9 27 22 0 26 -19 31 -39
11z"/>
<path d="M4535 3560 c-9 -15 14 -40 36 -40 21 0 25 20 7 38 -15 15 -35 15 -43
2z"/>
<path d="M3630 3552 c0 -42 262 -157 505 -222 44 -12 145 -34 225 -50 157 -32
340 -89 436 -138 100 -51 219 -155 306 -269 39 -51 67 -70 54 -38 -14 39 -96
146 -157 207 -149 148 -302 212 -674 282 -135 25 -207 44 -331 87 -109 37
-304 116 -346 139 -10 6 -18 6 -18 2z"/>
<path d="M3937 3553 c-4 -3 -7 -15 -7 -25 0 -13 8 -18 29 -18 35 0 48 15 31
35 -13 16 -42 20 -53 8z"/>
<path d="M4326 3545 c-8 -21 39 -44 56 -27 8 8 8 15 -2 27 -16 19 -46 19 -54
0z"/>
<path d="M1555 3538 c-40 -23 -41 -48 -1 -48 24 0 56 28 56 48 0 15 -29 15
-55 0z"/>
<path d="M3038 3519 c-24 -29 -88 -179 -88 -207 0 -7 11 -12 25 -12 14 0 25
-6 25 -13 0 -7 7 -22 15 -33 14 -18 14 -16 8 16 -3 19 -10 37 -15 38 -14 6 -9
29 26 109 55 129 57 163 4 102z"/>
<path d="M2890 3511 c-13 -25 -13 -34 0 -26 16 10 32 45 21 45 -6 0 -15 -9
-21 -19z"/>
<path d="M2002 3508 c-18 -18 -15 -25 14 -32 28 -7 54 7 54 30 0 17 -51 19
-68 2z"/>
<path d="M4110 3507 c0 -16 47 -40 61 -31 14 9 -20 44 -43 44 -10 0 -18 -6
-18 -13z"/>
<path d="M2540 3444 c-63 -29 -120 -54 -127 -54 -6 0 -14 -4 -18 -10 -12 -20
206 68 257 104 39 28 6 16 -112 -40z"/>
<path d="M4810 3490 c-13 -8 -13 -11 0 -24 21 -20 55 -24 55 -7 0 21 -37 42
-55 31z"/>
<path d="M1209 3476 c6 -7 9 -21 5 -30 -7 -19 17 -22 46 -6 19 10 19 11 0 30
-23 23 -70 29 -51 6z"/>
<path d="M4456 3462 c-9 -14 21 -35 40 -28 8 3 14 12 12 19 -6 15 -44 22 -52
9z"/>
<path d="M1163 3453 c-7 -2 -13 -11 -13 -19 0 -8 -7 -14 -15 -14 -8 0 -15 5
-15 10 0 6 -4 10 -10 10 -5 0 -10 -13 -10 -29 0 -27 3 -29 26 -25 27 5 27 5
10 -21 -9 -14 -23 -36 -32 -50 -11 -17 -13 -25 -4 -25 6 0 17 14 23 30 6 17
15 30 19 30 4 0 8 6 8 14 0 8 12 23 26 33 20 15 25 25 20 41 -7 22 -11 24 -33
15z"/>
<path d="M4662 3448 c7 -20 48 -23 48 -4 0 11 -9 16 -26 16 -16 0 -24 -5 -22
-12z"/>
<path d="M1770 3432 l-22 -18 35 -11 c31 -9 38 -8 52 7 34 38 -22 56 -65 22z"/>
<path d="M4300 3440 c0 -5 7 -10 15 -10 8 0 15 5 15 10 0 6 -7 10 -15 10 -8 0
-15 -4 -15 -10z"/>
<path d="M1455 3421 c-22 -10 -49 -28 -59 -40 -19 -21 -19 -21 10 -21 21 0 40
11 64 35 18 19 32 37 29 39 -2 3 -22 -3 -44 -13z"/>
<path d="M2780 3430 c-18 -11 -13 -17 20 -22 17 -2 26 2 28 15 4 19 -23 23
-48 7z"/>
<path d="M1612 3413 c-42 -20 -41 -33 3 -33 23 0 37 6 44 19 15 27 -7 33 -47
14z"/>
<path d="M2650 3403 c-19 -24 -19 -28 -4 -36 21 -12 60 24 51 47 -9 23 -23 20
-47 -11z"/>
<path d="M1023 3396 c6 -16 -56 -48 -77 -40 -8 3 -28 -2 -45 -10 -22 -12 -29
-21 -24 -34 6 -15 5 -15 -10 -3 -15 12 -22 12 -43 1 -13 -8 -23 -18 -21 -24 2
-6 -2 -15 -9 -21 -8 -6 -10 -15 -6 -23 10 -15 272 106 272 126 0 14 -24 42
-35 42 -4 0 -5 -6 -2 -14z"/>
<path d="M3357 3383 c-14 -13 -6 -30 18 -41 33 -15 35 -15 35 1 0 8 -8 21 -18
30 -20 19 -26 20 -35 10z"/>
<path d="M4587 3373 c-13 -12 -7 -21 24 -33 26 -11 32 -11 39 1 5 8 4 19 -2
26 -11 14 -50 18 -61 6z"/>
<path d="M1935 3356 c-18 -13 -16 -46 3 -46 15 0 44 38 37 49 -8 14 -17 14
-40 -3z"/>
<path d="M2335 3355 c-16 -8 -88 -37 -160 -65 -114 -45 -333 -138 -344 -147
-2 -2 -2 -6 2 -9 3 -4 57 16 119 44 62 27 154 66 203 86 107 44 234 104 220
105 -5 0 -23 -6 -40 -14z"/>
<path d="M3087 3342 c-11 -12 -15 -30 -12 -57 2 -22 4 -72 4 -111 1 -66 3 -73
28 -89 l26 -18 -7 103 c-3 57 -11 109 -16 115 -6 7 -7 26 -4 44 7 36 4 38 -19
13z"/>
<path d="M4940 3346 c0 -16 28 -42 36 -33 3 3 3 15 -1 26 -7 23 -35 29 -35 7z"/>
<path d="M4790 3341 c0 -9 24 -21 41 -21 5 0 9 7 9 15 0 9 -9 15 -25 15 -14 0
-25 -4 -25 -9z"/>
<path d="M2530 3321 c0 -13 26 -32 33 -24 14 13 6 33 -13 33 -11 0 -20 -4 -20
-9z"/>
<path d="M639 3318 c-8 -28 -7 -78 1 -78 11 0 14 7 24 53 5 20 3 27 -9 27 -8
0 -15 -1 -16 -2z"/>
<path d="M3549 3304 c-11 -14 -10 -20 14 -40 33 -29 57 -31 57 -6 0 17 -38 62
-52 62 -3 0 -12 -7 -19 -16z"/>
<path d="M3710 3301 c-18 -35 37 -98 63 -72 14 14 -14 85 -35 89 -9 2 -22 -6
-28 -17z"/>
<path d="M1304 3295 c-4 -8 -14 -15 -24 -15 -20 0 -56 -37 -46 -47 11 -11 58
10 70 32 6 11 18 25 26 32 13 11 13 12 -3 13 -10 0 -20 -7 -23 -15z"/>
<path d="M577 3273 c-9 -11 -17 -25 -17 -31 0 -6 -7 -9 -15 -6 -9 4 -38 -12
-73 -41 -79 -66 -92 -83 -92 -118 l0 -30 42 41 c23 23 46 42 52 42 5 0 38 19
73 42 62 41 67 50 54 96 -6 23 -6 24 -24 5z"/>
<path d="M1669 3275 c-35 -19 -44 -44 -22 -61 10 -7 21 -14 25 -14 7 0 68 74
68 84 0 11 -45 5 -71 -9z"/>
<path d="M2794 3267 c-28 -30 -37 -47 -25 -47 11 0 56 59 49 65 -2 2 -13 -6
-24 -18z"/>
<path d="M3863 3274 c-7 -19 13 -34 45 -34 27 0 28 11 4 33 -23 21 -41 22 -49
1z"/>
<path d="M13054 3241 l-39 -50 -70 -1 c-230 -1 -523 -181 -673 -412 -31 -48
-45 -60 -84 -74 -94 -31 -255 -161 -306 -247 -18 -31 -19 -31 -115 -6 -58 15
-139 2 -193 -31 -43 -27 -45 -46 -1 -20 65 38 162 38 225 -1 l33 -20 -19 -32
c-49 -82 -74 -247 -44 -297 61 -99 146 -135 218 -91 46 28 68 82 60 150 -9 77
-66 192 -127 256 l-50 53 48 63 c55 73 148 141 225 164 28 8 53 13 55 11 3 -2
-3 -25 -11 -50 -48 -142 -45 -340 8 -483 41 -109 62 -143 126 -209 70 -71 109
-89 195 -89 84 1 142 24 198 81 107 108 108 220 5 476 -50 126 -57 136 -128
208 -84 86 -140 117 -239 132 -37 6 -68 12 -70 14 -6 6 60 107 97 149 92 103
222 183 347 215 92 24 235 28 235 7 0 -7 -11 -42 -25 -77 -34 -86 -54 -191
-57 -291 -3 -103 34 -227 94 -322 40 -63 105 -137 120 -137 4 0 8 25 8 55 0
49 -5 62 -39 108 -88 118 -114 204 -115 382 -1 109 3 142 22 202 12 40 26 74
31 77 8 5 45 -3 84 -19 15 -6 17 -1 17 44 0 44 -3 51 -19 51 -33 0 -34 19 -6
61 39 59 24 59 -21 0z m-658 -621 c91 -44 202 -167 259 -285 48 -100 68 -185
69 -291 1 -137 -33 -170 -154 -152 -89 14 -174 61 -221 123 -42 55 -98 175
-99 210 0 11 -8 40 -16 65 -28 76 -19 307 14 364 8 14 84 -3 148 -34z m-504
-287 c88 -95 150 -287 108 -337 -7 -9 -25 -16 -41 -16 -36 0 -106 61 -116 99
-3 14 -11 32 -16 39 -27 34 -3 242 27 242 7 0 24 -12 38 -27z"/>
<path d="M743 3260 c-23 -14 -33 -27 -33 -45 0 -49 64 -17 66 34 1 17 1 31 0
31 0 0 -16 -9 -33 -20z"/>
<path d="M2635 3256 l-30 -24 29 -7 c30 -8 46 5 46 38 0 23 -9 22 -45 -7z"/>
<path d="M4110 3250 c0 -5 19 -14 43 -20 159 -41 205 -55 307 -95 166 -64 379
-195 464 -284 31 -33 56 -40 56 -17 0 19 -118 122 -214 186 -123 82 -364 177
-569 224 -80 19 -87 19 -87 6z"/>
<path d="M2359 3231 l-23 -18 24 -8 c17 -5 27 -3 37 11 27 37 2 48 -38 15z"/>
<path d="M4902 3220 c-10 -17 -10 -21 4 -27 16 -6 36 14 31 31 -6 18 -22 16
-35 -4z"/>
<path d="M2881 3164 c-29 -61 -33 -93 -10 -78 15 9 59 101 59 124 0 37 -17 21
-49 -46z"/>
<path d="M1040 3204 c0 -9 -7 -22 -16 -28 -9 -7 -14 -22 -12 -37 3 -22 5 -21
26 18 24 46 27 63 12 63 -5 0 -10 -7 -10 -16z"/>
<path d="M1405 3210 c-3 -5 3 -10 14 -10 12 0 21 5 21 10 0 6 -6 10 -14 10 -8
0 -18 -4 -21 -10z"/>
<path d="M3616 3191 c-8 -13 27 -40 62 -47 42 -9 41 9 -2 35 -36 23 -52 26
-60 12z"/>
<path d="M5143 3174 c-7 -18 6 -45 26 -52 9 -3 11 6 9 29 -3 36 -24 50 -35 23z"/>
<path d="M2155 3149 c-39 -35 -42 -44 -18 -53 17 -7 65 32 84 67 16 29 -26 21
-66 -14z"/>
<path d="M2461 3166 c-12 -14 -5 -26 16 -26 15 0 18 26 4 34 -5 3 -14 0 -20
-8z"/>
<path d="M3020 3170 c0 -5 5 -10 10 -10 6 0 10 5 10 10 0 6 -4 10 -10 10 -5 0
-10 -4 -10 -10z"/>
<path d="M3935 3163 c-16 -16 -16 -18 5 -35 28 -22 53 -23 71 -2 11 14 10 19
-10 35 -29 23 -45 24 -66 2z"/>
<path d="M5037 3173 c-12 -12 -7 -33 8 -33 17 0 19 9 7 28 -5 7 -11 9 -15 5z"/>
<path d="M514 3114 c-122 -87 -184 -154 -142 -154 25 0 123 84 123 106 0 29
89 73 99 50 3 -6 3 -1 0 12 -3 12 -1 22 5 22 6 0 11 5 11 10 0 19 -18 10 -96
-46z"/>
<path d="M3796 3151 c-8 -12 41 -54 54 -46 8 5 5 15 -11 31 -24 25 -35 29 -43
15z"/>
<path d="M1450 3128 l-21 -23 27 -9 c23 -7 31 -5 46 14 34 41 -14 58 -52 18z"/>
<path d="M1714 3086 c-91 -49 -254 -153 -254 -162 0 -4 10 0 23 8 46 31 262
151 294 164 18 8 33 19 33 24 0 16 -10 12 -96 -34z"/>
<path d="M2000 3094 c-42 -38 -53 -62 -22 -45 13 7 22 7 30 -1 8 -8 21 -1 46
28 42 47 44 54 11 54 -15 0 -41 -15 -65 -36z"/>
<path d="M3526 3112 c-3 -5 4 -19 16 -31 24 -27 51 -13 32 17 -13 19 -39 27
-48 14z"/>
<path d="M2286 3091 c-16 -17 -15 -19 8 -35 24 -15 26 -15 42 9 8 13 13 29 9
35 -10 16 -40 12 -59 -9z"/>
<path d="M1280 3074 c-21 -21 -22 -27 -10 -34 21 -13 25 -13 44 9 15 17 13 51
-3 51 -4 0 -18 -11 -31 -26z"/>
<path d="M4087 3094 c-15 -15 -6 -32 24 -44 34 -15 53 -4 47 26 -3 19 -56 32
-71 18z"/>
<path d="M2941 3064 c-22 -28 -25 -42 -15 -68 5 -12 11 -13 25 -6 14 8 18 21
17 55 0 25 -2 45 -4 45 -1 0 -12 -12 -23 -26z"/>
<path d="M965 3070 c-3 -5 -1 -10 4 -10 6 0 11 5 11 10 0 6 -2 10 -4 10 -3 0
-8 -4 -11 -10z"/>
<path d="M3041 3064 c0 -11 3 -14 6 -6 3 7 2 16 -1 19 -3 4 -6 -2 -5 -13z"/>
<path d="M3090 3065 c0 -8 5 -15 10 -15 6 0 10 7 10 15 0 8 -4 15 -10 15 -5 0
-10 -7 -10 -15z"/>
<path d="M3705 3050 c-17 -19 -17 -20 8 -31 50 -23 75 8 31 38 -18 12 -23 11
-39 -7z"/>
<path d="M1146 3043 c-6 -14 -5 -15 5 -6 7 7 10 15 7 18 -3 3 -9 -2 -12 -12z"/>
<path d="M2472 3048 c-15 -15 -15 -25 1 -31 7 -3 23 6 36 19 l23 24 -24 0
c-13 0 -29 -5 -36 -12z"/>
<path d="M330 3025 c0 -8 2 -15 4 -15 2 0 6 7 10 15 3 8 1 15 -4 15 -6 0 -10
-7 -10 -15z"/>
<path d="M2780 2983 c-44 -73 -45 -74 -26 -67 17 6 76 94 76 112 0 25 -17 10
-50 -45z"/>
<path d="M3950 3027 c0 -17 45 -42 59 -33 8 5 8 13 1 27 -12 22 -60 26 -60 6z"/>
<path d="M5115 3030 c-4 -6 -3 -16 3 -22 6 -6 12 -6 17 2 4 6 3 16 -3 22 -6 6
-12 6 -17 -2z"/>
<path d="M233 2963 c-84 -95 -163 -202 -163 -219 0 -20 13 -17 28 6 26 41 122
156 140 167 21 13 69 99 60 108 -3 3 -32 -25 -65 -62z"/>
<path d="M3262 3018 c-17 -17 -16 -131 1 -126 17 6 38 75 31 104 -8 30 -17 37
-32 22z"/>
<path d="M4474 3015 c-9 -24 22 -53 38 -37 9 9 10 17 2 29 -15 24 -33 27 -40
8z"/>
<path d="M936 3011 c-4 -7 -5 -15 -2 -18 9 -9 19 4 14 18 -4 11 -6 11 -12 0z"/>
<path d="M3040 3010 c0 -5 5 -10 10 -10 6 0 10 5 10 10 0 6 -4 10 -10 10 -5 0
-10 -4 -10 -10z"/>
<path d="M4186 3012 c-8 -13 41 -52 65 -52 22 0 24 10 7 33 -16 20 -64 32 -72
19z"/>
<path d="M3110 2995 c0 -8 5 -15 10 -15 6 0 10 7 10 15 0 8 -4 15 -10 15 -5 0
-10 -7 -10 -15z"/>
<path d="M4310 3001 c0 -8 84 -61 96 -61 15 0 -2 24 -33 45 -39 26 -63 32 -63
16z"/>
<path d="M2154 2977 l-27 -24 39 -6 c43 -7 71 10 61 37 -9 23 -42 20 -73 -7z"/>
<path d="M3606 2974 c-4 -10 1 -25 10 -35 34 -37 67 -15 40 26 -19 29 -41 32
-50 9z"/>
<path d="M3870 2964 c0 -17 46 -48 60 -39 17 11 11 20 -25 37 -28 13 -35 13
-35 2z"/>
<path d="M1217 2952 c-21 -23 -22 -38 -1 -46 22 -9 46 13 42 37 -4 28 -21 31
-41 9z"/>
<path d="M2331 2956 c-9 -10 -9 -16 -1 -21 17 -11 60 4 60 20 0 19 -44 20 -59
1z"/>
<path d="M2576 2956 l-29 -13 33 -11 c35 -13 74 0 67 21 -5 17 -37 18 -71 3z"/>
<path d="M316 2944 c-8 -21 -1 -28 18 -21 9 4 13 13 10 22 -8 20 -20 19 -28
-1z"/>
<path d="M1826 2927 c-34 -33 -46 -57 -28 -57 5 0 26 15 48 34 29 25 36 37 28
46 -8 8 -20 3 -48 -23z"/>
<path d="M3089 2933 c0 -28 -1 -28 -11 -5 -12 24 -34 31 -25 8 3 -8 9 -31 13
-50 4 -26 11 -36 25 -36 10 0 21 -5 24 -10 12 -19 25 1 25 38 0 61 -49 114
-51 55z"/>
<path d="M896 2928 c-16 -26 -19 -126 -5 -144 6 -8 4 -14 -6 -18 -29 -11 -14
-39 196 -361 64 -98 119 -200 119 -221 0 -2 -16 -11 -36 -19 -21 -8 -43 -23
-51 -33 -19 -24 -34 -62 -28 -72 9 -15 93 20 171 71 96 63 190 110 284 142 70
24 562 149 567 144 1 -1 -22 -41 -50 -87 l-53 -85 -77 -6 c-45 -4 -109 -18
-150 -33 -105 -38 -247 -140 -226 -161 3 -3 33 11 65 30 86 52 175 77 265 73
60 -2 73 -6 70 -18 -2 -8 -14 -49 -27 -91 -36 -120 -39 -145 -18 -153 23 -9
23 -8 35 65 17 112 40 179 59 179 33 0 155 -69 211 -119 111 -99 216 -272 253
-416 37 -146 29 -324 -19 -418 -39 -77 -31 -119 11 -54 53 82 104 255 103 352
0 71 -22 188 -53 275 -33 93 -39 100 -66 69 l-21 -24 6 35 c4 19 9 44 12 55 6
27 -95 168 -115 160 -9 -3 -12 0 -9 10 9 21 -74 89 -167 135 -43 22 -84 40
-92 40 -26 0 -24 20 12 85 47 85 94 135 127 135 34 0 170 70 253 130 37 27
102 82 143 122 41 40 81 73 90 73 10 0 17 11 19 29 2 16 15 40 28 55 13 14 19
28 14 29 -6 2 -55 -39 -108 -92 -123 -122 -170 -155 -307 -222 -121 -58 -235
-97 -425 -144 -254 -62 -469 -146 -615 -239 -58 -37 -70 -39 -54 -9 18 33 12
103 -12 150 -45 89 -189 312 -237 368 -54 61 -66 94 -65 173 1 42 0 77 -3 77
-2 0 -10 -10 -18 -22z"/>
<path d="M2993 2918 c-20 -32 -33 -62 -33 -76 0 -28 37 18 45 56 7 33 2 41
-12 20z"/>
<path d="M4057 2923 c-13 -12 -7 -23 24 -38 34 -18 59 -14 59 9 0 26 -64 48
-83 29z"/>
<path d="M4620 2917 c0 -7 5 -18 12 -25 7 -7 18 -12 25 -12 20 0 15 28 -6 40
-26 13 -31 13 -31 -3z"/>
<path d="M1410 2889 l-35 -31 32 22 c29 19 50 40 41 40 -2 0 -19 -14 -38 -31z"/>
<path d="M1964 2883 l-29 -28 28 -3 c30 -4 67 21 67 45 0 22 -35 15 -66 -14z"/>
<path d="M2865 2873 c-10 -24 -12 -40 -5 -47 6 -6 15 3 25 27 17 42 19 57 5
57 -5 0 -17 -17 -25 -37z"/>
<path d="M3780 2885 c0 -19 43 -40 66 -31 16 6 16 8 -1 26 -22 24 -65 27 -65
5z"/>
<path d="M5261 2874 c0 -11 3 -14 6 -6 3 7 2 16 -1 19 -3 4 -6 -2 -5 -13z"/>
<path d="M4315 2869 c-9 -14 -4 -18 33 -25 36 -7 44 9 13 26 -25 13 -38 13
-46 -1z"/>
<path d="M2433 2845 l-28 -24 41 -1 c42 0 72 20 59 40 -11 17 -43 11 -72 -15z"/>
<path d="M2741 2846 c-7 -8 -10 -24 -6 -36 4 -11 2 -20 -4 -20 -7 0 -11 -23
-11 -55 0 -41 5 -61 19 -76 19 -21 19 -20 20 45 0 44 -4 66 -11 66 -7 0 -5 6
4 13 19 14 28 69 12 74 -6 2 -17 -3 -23 -11z"/>
<path d="M2143 2843 c-21 -8 -15 -40 9 -47 27 -7 41 5 36 30 -3 19 -23 27 -45
17z"/>
<path d="M2270 2825 l-23 -25 40 0 c45 0 70 19 51 38 -19 19 -43 14 -68 -13z"/>
<path d="M4472 2838 c7 -19 38 -22 38 -4 0 10 -9 16 -21 16 -12 0 -19 -5 -17
-12z"/>
<path d="M1589 2825 c-23 -12 -59 -55 -59 -70 0 -16 50 -1 71 23 49 54 54 62
33 62 -11 -1 -31 -7 -45 -15z"/>
<path d="M3366 2824 c-9 -24 -7 -54 4 -54 10 0 30 32 30 48 0 17 -28 21 -34 6z"/>
<path d="M121 2759 c-30 -33 -51 -62 -47 -66 8 -8 116 97 116 115 0 21 -13 12
-69 -49z"/>
<path d="M3946 2803 c-5 -11 -1 -22 10 -30 23 -17 29 -16 45 3 11 14 10 18 -6
30 -25 19 -41 18 -49 -3z"/>
<path d="M4737 2813 c-12 -11 -7 -43 6 -43 23 0 38 22 26 37 -13 14 -22 16
-32 6z"/>
<path d="M3091 2770 c-1 -57 8 -92 23 -87 13 4 21 67 9 76 -5 3 -14 17 -20 31
-11 23 -12 22 -12 -20z"/>
<path d="M4134 2796 c-24 -18 -20 -22 33 -30 49 -7 63 6 31 28 -28 20 -39 20
-64 2z"/>
<path d="M3226 2784 c-10 -25 -7 -34 9 -34 9 0 15 9 15 25 0 28 -15 34 -24 9z"/>
<path d="M3300 2764 c0 -8 5 -12 10 -9 6 4 8 11 5 16 -9 14 -15 11 -15 -7z"/>
<path d="M1745 2756 c-25 -18 -11 -36 31 -39 25 -2 29 2 29 23 0 30 -30 38
-60 16z"/>
<path d="M4411 2757 c-14 -18 21 -52 44 -44 21 9 19 34 -4 47 -25 13 -26 13
-40 -3z"/>
<path d="M4565 2760 c-9 -15 14 -40 31 -33 19 7 18 29 -2 37 -21 8 -22 8 -29
-4z"/>
<path d="M2981 2738 c-9 -15 -10 -23 -3 -26 8 -2 8 -10 0 -27 -11 -25 -5 -55
12 -55 5 0 10 6 10 14 0 8 4 16 8 18 9 4 3 98 -7 98 -3 0 -12 -10 -20 -22z"/>
<path d="M1924 2713 c-17 -17 -17 -18 5 -21 31 -5 51 4 51 23 0 20 -34 19 -56
-2z"/>
<path d="M2156 2699 c-33 -26 -33 -33 0 -48 24 -10 30 -9 51 11 14 13 29 31
34 41 8 15 5 17 -24 17 -20 0 -46 -9 -61 -21z"/>
<path d="M4263 2710 c-34 -14 -28 -27 14 -33 26 -5 42 -2 52 8 13 12 11 16
-13 25 -15 5 -28 10 -29 9 -1 0 -12 -4 -24 -9z"/>
<path d="M4905 2700 c-3 -6 1 -13 10 -16 19 -8 30 0 20 15 -8 14 -22 14 -30 1z"/>
<path d="M4793 2673 c-22 -8 -14 -32 13 -39 33 -8 52 9 34 31 -13 15 -25 17
-47 8z"/>
<path d="M4592 2658 c-20 -20 -14 -30 15 -26 32 4 46 38 16 38 -11 0 -24 -5
-31 -12z"/>
<path d="M2890 2639 c0 -11 5 -17 10 -14 6 3 10 13 10 21 0 8 -4 14 -10 14 -5
0 -10 -9 -10 -21z"/>
<path d="M3322 2633 c-19 -52 -21 -62 -13 -67 13 -9 39 27 43 58 4 38 -16 44
-30 9z"/>
<path d="M2710 2609 c0 -45 25 -108 47 -116 7 -3 20 0 27 6 11 9 15 9 19 -1 3
-7 6 1 6 17 1 37 -8 52 -34 56 -11 3 -21 13 -23 23 -3 12 0 16 8 11 8 -5 11
-3 8 6 -3 8 -11 13 -17 11 -6 -1 -14 5 -17 13 -11 29 -24 15 -24 -26z"/>
<path d="M3217 2622 c-18 -19 -23 -62 -9 -62 21 0 42 37 34 59 -8 22 -8 22
-25 3z"/>
<path d="M1687 2582 c-15 -16 -15 -20 -2 -38 15 -19 15 -19 30 1 29 37 3 71
-28 37z"/>
<path d="M5030 2571 c0 -11 31 -24 39 -16 3 3 -1 10 -9 15 -19 12 -30 12 -30
1z"/>
<path d="M2967 2563 c-4 -3 -7 -11 -7 -17 0 -6 5 -5 12 2 6 6 9 14 7 17 -3 3
-9 2 -12 -2z"/>
<path d="M3037 2563 c-4 -3 -7 -17 -7 -30 0 -33 24 -24 28 10 3 26 -7 35 -21
20z"/>
<path d="M3119 2549 c-13 -57 -9 -178 16 -492 14 -181 25 -402 25 -490 1 -132
3 -158 13 -142 19 31 15 437 -6 610 -19 158 -36 366 -40 470 -1 42 -4 59 -8
44z"/>
<path d="M3422 2528 c-16 -16 -15 -50 1 -72 12 -16 14 -16 26 -3 14 18 11 79
-4 84 -6 2 -16 -2 -23 -9z"/>
<path d="M3238 2488 c-8 -13 -18 -44 -21 -70 -5 -39 -4 -48 9 -48 29 0 65 127
38 137 -6 2 -18 -7 -26 -19z"/>
<path d="M3346 2481 c-17 -18 -22 -71 -7 -71 22 0 51 73 33 84 -5 3 -17 -3
-26 -13z"/>
<path d="M2935 2480 c3 -5 11 -10 16 -10 6 0 7 5 4 10 -3 6 -11 10 -16 10 -6
0 -7 -4 -4 -10z"/>
<path d="M2948 2350 c-19 -26 -23 -50 -9 -50 16 0 33 29 29 52 l-3 23 -17 -25z"/>
<path d="M3047 2320 c-51 -60 -49 -86 4 -34 25 25 40 48 37 60 -2 14 -10 9
-41 -26z"/>
<path d="M3401 2305 c-35 -40 -38 -50 -16 -59 33 -12 78 36 68 73 -7 29 -16
27 -52 -14z"/>
<path d="M11470 2311 c-5 -11 -16 -25 -23 -33 -20 -21 -38 -138 -31 -207 6
-52 13 -68 43 -102 28 -31 45 -42 77 -46 23 -3 50 0 60 6 18 10 17 10 -4 11
-36 0 -57 16 -108 77 l-46 58 4 83 c5 92 13 105 59 92 76 -22 131 -82 156
-168 l13 -47 -4 43 c-8 86 -74 162 -154 178 -39 8 -48 24 -32 53 6 12 8 21 6
21 -3 0 -10 -9 -16 -19z"/>
<path d="M2788 2313 c-20 -5 -24 -28 -8 -38 20 -12 50 -85 50 -120 0 -20 -11
-58 -25 -85 -32 -64 -32 -116 -1 -163 45 -67 47 -73 35 -122 -10 -40 -9 -49 5
-63 15 -15 16 -14 16 20 0 20 9 55 20 79 27 61 25 79 -15 137 -50 74 -52 90
-16 167 34 72 39 121 16 165 -15 30 -33 35 -77 23z"/>
<path d="M3261 2266 c-15 -18 -11 -68 6 -73 15 -5 27 51 15 72 -7 14 -10 15
-21 1z"/>
<path d="M11360 2245 c-32 -18 -25 -18 25 0 22 8 31 14 20 14 -11 0 -31 -6
-45 -14z"/>
<path d="M2973 2183 c-15 -5 -17 -79 -3 -88 14 -9 22 16 18 57 -2 23 -7 33
-15 31z"/>
<path d="M3593 2145 c-3 -9 -3 -19 1 -22 7 -7 36 16 36 28 0 15 -30 10 -37 -6z"/>
<path d="M3041 2136 c-13 -16 -11 -73 2 -68 15 5 37 51 31 66 -8 20 -18 20
-33 2z"/>
<path d="M3355 2101 c-3 -5 -1 -12 5 -16 5 -3 10 1 10 9 0 18 -6 21 -15 7z"/>
<path d="M3227 2043 c-13 -12 -7 -63 7 -63 15 0 26 21 26 51 0 18 -20 26 -33
12z"/>
<path d="M3343 2042 c-24 -4 -29 -18 -14 -41 10 -16 26 -8 41 19 12 22 4 28
-27 22z"/>
<path d="M3428 2025 c-19 -25 -22 -43 -12 -70 11 -28 54 21 54 62 0 39 -17 43
-42 8z"/>
<path d="M11240 2017 c0 -26 42 -104 48 -89 2 8 -1 19 -7 25 -6 6 -11 18 -11
27 0 8 -7 24 -15 34 -13 18 -15 18 -15 3z"/>
<path d="M1439 1958 c-63 -76 -136 -185 -167 -253 -20 -43 -31 -53 -78 -74
-69 -30 -180 -137 -250 -243 -29 -42 -54 -83 -56 -89 -3 -10 -18 -8 -58 9 -87
36 -144 28 -227 -35 -18 -13 -38 -33 -43 -44 -8 -14 2 -10 35 15 25 19 61 38
80 42 52 9 116 -3 150 -30 l29 -23 -17 -39 c-50 -117 -68 -293 -39 -376 20
-56 51 -91 68 -77 20 16 39 6 39 -21 0 -33 41 -48 80 -29 45 22 43 38 -4 32
-33 -5 -42 -2 -48 13 -5 11 -20 37 -35 59 -55 81 -72 216 -43 344 l16 68 32
-7 c25 -5 31 -11 30 -28 -2 -11 13 -51 31 -89 19 -37 41 -102 50 -143 24 -107
29 -123 44 -128 19 -6 15 73 -8 164 -27 103 -69 191 -113 234 -43 42 -45 56
-12 120 56 110 175 220 255 236 l33 7 -8 -34 c-4 -19 -9 -58 -11 -88 -1 -29
-7 -58 -13 -64 -16 -16 -14 -40 4 -33 8 3 21 -2 30 -10 13 -14 15 -10 15 33 1
60 24 181 37 194 15 15 80 -5 135 -41 46 -30 103 -88 145 -145 l22 -30 1 86 0
87 -41 40 c-53 51 -120 84 -181 90 -27 2 -50 8 -53 12 -7 12 64 152 108 210
22 30 58 72 79 92 42 42 45 48 24 48 -8 0 -38 -28 -67 -62z"/>
<path d="M2950 1961 c-12 -24 -13 -31 -2 -31 5 0 14 11 20 25 14 29 -2 34 -18
6z"/>
<path d="M3042 1910 c-14 -23 -15 -49 -2 -70 13 -22 28 -3 36 48 5 32 3 42 -7
42 -8 0 -20 -9 -27 -20z"/>
<path d="M3283 1888 c-23 -30 -25 -78 -2 -78 7 0 29 61 29 83 0 11 -17 8 -27
-5z"/>
<path d="M3370 1813 c-22 -28 -23 -54 -4 -60 9 -3 44 62 44 82 0 14 -21 2 -40
-22z"/>
<path d="M1874 1774 c-10 -71 2 -239 26 -333 26 -108 96 -251 156 -319 73 -84
164 -128 237 -116 l39 6 -36 33 c-20 18 -36 38 -36 43 0 6 -20 23 -45 38 -148
86 -267 330 -283 579 -7 103 -8 110 -29 113 -19 3 -23 -3 -29 -44z"/>
<path d="M2956 1758 c-19 -27 -22 -82 -3 -76 6 3 13 18 15 34 2 16 8 33 13 39
5 5 9 13 9 17 0 16 -19 8 -34 -14z"/>
<path d="M3060 1685 c-27 -28 -31 -38 -22 -47 16 -16 41 -1 62 35 25 45 0 53
-40 12z"/>
<path d="M3714 1686 c-3 -9 -3 -24 1 -33 6 -17 7 -17 21 2 8 10 13 24 11 29
-6 17 -27 18 -33 2z"/>
<path d="M3410 1675 c-15 -18 -6 -45 13 -45 20 0 40 27 33 45 -7 19 -30 19
-46 0z"/>
<path d="M2853 1632 c-26 -4 -27 -9 -12 -71 8 -37 6 -57 -17 -134 -33 -113
-27 -137 58 -234 l62 -72 66 63 c70 66 135 95 180 81 24 -8 40 7 40 38 0 13
-8 17 -36 17 -50 0 -97 -25 -155 -82 -27 -26 -50 -48 -52 -48 -7 0 -105 128
-121 158 -21 41 -20 97 4 174 21 66 25 104 13 110 -5 2 -18 2 -30 0z"/>
<path d="M3301 1589 c-32 -43 -34 -63 -6 -39 20 16 48 70 41 77 -2 3 -18 -14
-35 -38z"/>
<path d="M3720 1600 c-10 -20 -7 -133 4 -137 11 -5 34 41 36 72 4 62 0 85 -15
85 -8 0 -19 -9 -25 -20z"/>
<path d="M2987 1531 c-20 -34 -22 -64 -4 -59 6 3 17 15 24 28 6 12 17 26 23
30 14 9 5 30 -13 30 -7 0 -20 -13 -30 -29z"/>
<path d="M3310 1458 c-31 -47 -33 -51 -21 -47 15 5 56 69 44 69 -4 0 -15 -10
-23 -22z"/>
<path d="M1603 1378 c3 -79 10 -108 42 -188 55 -140 77 -259 73 -403 l-3 -119
-32 -28 c-19 -17 -28 -32 -22 -36 17 -10 58 36 91 103 55 112 50 246 -19 473
-36 121 -109 290 -125 290 -5 0 -8 -40 -5 -92z"/>
<path d="M1170 1247 c0 -91 1 -97 21 -97 15 0 20 -5 17 -22 -2 -16 -9 -22 -21
-20 -16 3 -18 -2 -11 -45 3 -26 10 -56 15 -65 5 -9 9 -31 9 -48 0 -17 4 -40
10 -50 8 -16 14 -17 45 -7 19 6 35 15 35 20 0 6 -9 45 -20 86 -10 42 -23 96
-27 121 -7 36 -13 45 -33 50 -29 7 -34 33 -7 38 9 2 17 -1 17 -7 0 -6 3 -11 8
-11 4 0 6 29 4 64 -3 54 -6 64 -19 59 -9 -4 -22 1 -29 12 -12 16 -14 6 -14
-78z"/>
<path d="M3405 1250 c-58 -59 -60 -60 -72 -37 -15 28 -17 16 -2 -16 10 -21 20
-26 76 -32 59 -6 67 -5 89 16 32 30 30 88 -3 105 -13 6 -20 14 -16 17 3 4 2 7
-3 7 -5 0 -36 -27 -69 -60z"/>
<path d="M3628 1254 c-5 -4 -8 -16 -8 -28 0 -14 3 -17 11 -9 6 6 9 19 7 28 -1
9 -6 13 -10 9z"/>
<path d="M505 1139 c-4 -6 -5 -12 -2 -15 2 -3 7 2 10 11 7 17 1 20 -8 4z"/>
<path d="M434 1079 c-28 -10 -62 -31 -75 -45 l-24 -26 39 26 c41 27 83 42 92
33 3 -3 0 -32 -6 -64 -25 -117 6 -271 63 -319 26 -22 38 -25 75 -21 24 3 49
10 55 17 10 10 7 11 -12 7 -41 -10 -77 18 -126 99 -35 58 -46 125 -33 209 5
39 15 73 20 76 11 7 2 29 -10 28 -4 0 -30 -9 -58 -20z"/>
<path d="M630 1002 c0 -4 6 -17 14 -28 8 -11 24 -47 35 -80 21 -58 21 -58 17
-17 -4 46 -42 133 -57 133 -5 0 -9 -3 -9 -8z"/>
<path d="M286 780 c8 -55 33 -120 46 -120 6 0 7 7 2 18 -4 9 -18 46 -31 82
-22 62 -23 63 -17 20z"/>
<path d="M1450 631 c10 -20 9 -21 -13 -16 -33 9 -57 -19 -35 -41 17 -18 89
-44 100 -37 17 10 7 60 -14 80 -38 34 -52 39 -38 14z"/>
</g>
</svg>
