<?xml version="1.0" standalone="no"?>
<!DOCTYPE svg PUBLIC "-//W3C//DTD SVG 20010904//EN"
 "http://www.w3.org/TR/2001/REC-SVG-20010904/DTD/svg10.dtd">
<svg version="1.0" xmlns="http://www.w3.org/2000/svg"
 width="626.000000pt" height="417.000000pt" viewBox="0 0 626.000000 417.000000"
 preserveAspectRatio="xMidYMid meet">

<g transform="translate(0.000000,417.000000) scale(0.100000,-0.100000)"
fill="#000000" stroke="none">
<path d="M140 4166 c0 -11 40 -86 45 -86 3 0 -4 19 -16 43 -23 45 -29 54 -29
43z"/>
<path d="M320 4146 c0 -3 9 -10 20 -16 11 -6 20 -8 20 -6 0 3 -9 10 -20 16
-11 6 -20 8 -20 6z"/>
<path d="M370 4117 c0 -3 33 -27 73 -55 113 -78 252 -199 372 -323 l110 -113
-30 -7 c-30 -7 -30 -7 6 -8 32 -1 42 -9 101 -83 91 -115 168 -236 168 -264 0
-14 -17 -40 -45 -67 -25 -25 -45 -51 -45 -58 0 -8 9 -1 19 15 24 36 68 65 89
59 10 -2 36 -36 60 -76 23 -39 42 -67 42 -61 0 7 -16 38 -35 70 -58 96 -41
100 58 14 62 -55 127 -98 127 -86 0 3 -14 13 -30 21 -17 9 -28 20 -25 25 4 6
0 10 -7 10 -21 0 -148 108 -148 126 0 8 12 27 28 41 l27 27 -27 -17 c-53 -33
-73 -24 -129 61 -29 42 -81 114 -116 159 l-64 82 128 4 128 3 -132 2 -131 2
-124 126 c-118 121 -266 250 -373 325 -62 43 -75 51 -75 46z"/>
<path d="M211 4029 c-1 -4 10 -32 24 -64 24 -53 55 -162 55 -193 0 -9 -8 -11
-22 -8 -13 3 -5 -3 17 -13 22 -10 51 -21 65 -25 15 -3 10 1 -10 10 -34 14 -37
19 -52 92 -13 63 -74 222 -77 201z"/>
<path d="M2002 4001 c-46 -16 -86 -32 -89 -35 -11 -10 6 -7 45 10 20 9 69 24
107 34 39 11 59 19 45 19 -14 1 -62 -12 -108 -28z"/>
<path d="M2150 4005 c7 -9 15 -13 17 -11 7 7 -7 26 -19 26 -6 0 -6 -6 2 -15z"/>
<path d="M2135 3958 c-27 -18 -28 -19 -5 -13 26 8 47 22 39 28 -2 3 -17 -4
-34 -15z"/>
<path d="M2193 3963 c9 -2 23 -2 30 0 6 3 -1 5 -18 5 -16 0 -22 -2 -12 -5z"/>
<path d="M1855 3945 c-25 -12 -26 -14 -5 -9 28 7 60 23 45 23 -5 0 -23 -6 -40
-14z"/>
<path d="M2258 3935 c11 -16 22 -39 25 -50 4 -19 5 -18 6 2 0 12 -11 35 -25
50 l-26 28 20 -30z"/>
<path d="M2090 3915 c0 -31 -61 -92 -102 -100 -45 -10 -27 -17 23 -9 24 4 39
9 33 11 -6 2 4 19 22 37 21 21 34 44 34 60 0 14 -2 26 -5 26 -3 0 -5 -11 -5
-25z"/>
<path d="M1775 3915 c-25 -12 -26 -14 -5 -9 28 7 60 23 45 23 -5 0 -23 -6 -40
-14z"/>
<path d="M50 3872 c28 -23 172 -102 186 -102 5 0 -27 20 -71 43 -44 24 -93 51
-110 61 l-30 18 25 -20z"/>
<path d="M1685 3871 c-51 -32 -83 -74 -100 -133 -17 -59 -23 -64 -100 -81 -11
-3 7 -4 41 -3 58 1 62 -1 110 -43 51 -45 100 -72 131 -70 10 0 -2 6 -26 14
-69 22 -157 120 -128 143 7 4 48 17 92 27 44 10 89 24 100 32 19 13 18 14 -10
7 -16 -4 -54 -15 -84 -26 -53 -18 -102 -23 -113 -13 -3 3 0 22 7 42 12 35 55
82 101 110 10 6 17 12 14 12 -3 1 -18 -7 -35 -18z"/>
<path d="M2265 3848 c-2 -7 -5 -24 -7 -38 -3 -26 -12 -28 -58 -17 -18 5 -16 3
7 -8 17 -8 39 -25 48 -37 15 -21 16 -21 11 -2 -3 11 -2 41 3 67 8 44 6 63 -4
35z"/>
<path d="M1723 3810 c-24 -10 -43 -21 -43 -24 0 -4 90 32 99 40 11 10 -18 2
-56 -16z"/>
<path d="M2083 3813 c9 -2 23 -2 30 0 6 3 -1 5 -18 5 -16 0 -22 -2 -12 -5z"/>
<path d="M2138 3803 c6 -2 18 -2 25 0 6 3 1 5 -13 5 -14 0 -19 -2 -12 -5z"/>
<path d="M1928 3793 c7 -3 16 -2 19 1 4 3 -2 6 -13 5 -11 0 -14 -3 -6 -6z"/>
<path d="M1850 3780 c-20 -6 -21 -8 -5 -8 11 0 31 4 45 8 20 6 21 8 5 8 -11 0
-31 -4 -45 -8z"/>
<path d="M2098 3773 c7 -3 16 -2 19 1 4 3 -2 6 -13 5 -11 0 -14 -3 -6 -6z"/>
<path d="M5111 3754 c-12 -15 -21 -34 -20 -43 0 -11 3 -10 9 5 13 32 30 39 37
15 l5 -20 17 21 c21 25 36 18 55 -25 8 -18 15 -26 15 -19 2 23 22 12 33 -19 7
-22 13 -27 19 -18 6 11 15 10 43 -4 54 -25 43 -13 -18 21 -29 17 -62 41 -72
54 -25 31 -64 58 -85 58 -10 0 -27 -12 -38 -26z"/>
<path d="M2048 3763 c7 -3 16 -2 19 1 4 3 -2 6 -13 5 -11 0 -14 -3 -6 -6z"/>
<path d="M1888 3753 c6 -2 18 -2 25 0 6 3 1 5 -13 5 -14 0 -19 -2 -12 -5z"/>
<path d="M1973 3753 c9 -2 25 -2 35 0 9 3 1 5 -18 5 -19 0 -27 -2 -17 -5z"/>
<path d="M301 3695 c0 -16 13 -59 30 -95 17 -36 49 -110 70 -165 21 -55 39
-94 39 -87 0 18 -62 177 -95 241 -14 29 -30 72 -35 95 -7 35 -8 37 -9 11z"/>
<path d="M425 3700 c11 -5 27 -9 35 -9 9 0 8 4 -5 9 -11 5 -27 9 -35 9 -9 0
-8 -4 5 -9z"/>
<path d="M2250 3687 c-7 -12 -14 -30 -15 -39 -2 -26 -34 -57 -69 -67 -25 -7
-26 -9 -9 -10 29 -1 86 49 88 76 0 12 7 29 15 37 7 9 11 18 9 21 -3 2 -11 -6
-19 -18z"/>
<path d="M515 3675 c22 -8 49 -13 60 -13 11 0 -2 6 -30 14 -63 17 -84 16 -30
-1z"/>
<path d="M5092 3655 c0 -16 2 -22 5 -12 2 9 2 23 0 30 -3 6 -5 -1 -5 -18z"/>
<path d="M620 3650 c14 -4 36 -8 50 -8 22 0 22 1 -5 8 -16 4 -39 8 -50 8 -16
0 -15 -2 5 -8z"/>
<path d="M5490 3612 l-48 -50 -37 37 -38 36 23 -38 c17 -29 21 -47 17 -75 -5
-29 -4 -33 4 -19 8 14 14 16 25 6 21 -18 17 -82 -8 -115 -12 -16 -15 -23 -8
-16 20 17 43 15 36 -3 -4 -12 0 -14 19 -9 32 8 50 -3 35 -21 -9 -11 -7 -12 8
-9 27 8 49 -22 34 -47 -10 -16 -9 -19 6 -19 23 0 42 -19 42 -42 0 -9 18 -36
40 -60 73 -79 81 -185 16 -214 -30 -13 -30 -13 19 -7 53 6 72 13 37 13 -19 0
-20 3 -10 31 15 45 4 106 -30 153 -16 22 -35 59 -42 81 -7 22 -19 53 -28 70
-11 21 -12 30 -3 33 28 9 110 112 110 137 0 6 -8 -6 -19 -26 -10 -19 -37 -52
-60 -73 l-41 -37 -30 26 c-17 14 -35 25 -41 25 -6 0 -3 10 8 23 l19 22 -21
-18 c-29 -24 -78 -14 -69 14 9 27 9 69 1 105 -6 27 -2 36 24 63 52 51 83 38
48 -20 l-20 -34 29 28 c44 41 68 33 42 -14 -10 -20 -10 -20 14 -4 23 14 25 14
31 0 3 -9 1 -26 -5 -38 -9 -18 -9 -20 2 -9 18 17 39 15 61 -5 10 -9 18 -11 18
-5 0 6 -12 19 -27 30 -16 11 -42 46 -58 79 -41 78 -61 81 -125 15z"/>
<path d="M1413 3643 c9 -2 23 -2 30 0 6 3 -1 5 -18 5 -16 0 -22 -2 -12 -5z"/>
<path d="M713 3633 c9 -2 25 -2 35 0 9 3 1 5 -18 5 -19 0 -27 -2 -17 -5z"/>
<path d="M1343 3633 c9 -2 25 -2 35 0 9 3 1 5 -18 5 -19 0 -27 -2 -17 -5z"/>
<path d="M788 3623 c12 -2 30 -2 40 0 9 3 -1 5 -23 4 -22 0 -30 -2 -17 -4z"/>
<path d="M1248 3623 c12 -2 32 -2 45 0 12 2 2 4 -23 4 -25 0 -35 -2 -22 -4z"/>
<path d="M5101 3594 c0 -11 3 -14 6 -6 3 7 2 16 -1 19 -3 4 -6 -2 -5 -13z"/>
<path d="M2068 3553 c7 -3 16 -2 19 1 4 3 -2 6 -13 5 -11 0 -14 -3 -6 -6z"/>
<path d="M2013 3543 c9 -2 23 -2 30 0 6 3 -1 5 -18 5 -16 0 -22 -2 -12 -5z"/>
<path d="M1833 3533 c26 -2 68 -2 95 0 26 2 4 3 -48 3 -52 0 -74 -1 -47 -3z"/>
<path d="M5534 3488 l-19 -23 23 19 c21 18 27 26 19 26 -2 0 -12 -10 -23 -22z"/>
<path d="M5160 3390 c0 -3 14 -39 30 -80 18 -45 28 -61 24 -40 -6 30 -52 135
-54 120z"/>
<path d="M5358 3274 c-22 -47 -38 -87 -36 -90 3 -2 23 37 45 86 23 50 39 90
37 90 -3 0 -23 -39 -46 -86z"/>
<path d="M1368 3343 c12 -2 32 -2 45 0 12 2 2 4 -23 4 -25 0 -35 -2 -22 -4z"/>
<path d="M1300 3330 c-18 -12 -2 -12 25 0 13 6 15 9 5 9 -8 0 -22 -4 -30 -9z"/>
<path d="M1448 3333 c7 -3 16 -2 19 1 4 3 -2 6 -13 5 -11 0 -14 -3 -6 -6z"/>
<path d="M5720 3327 c28 -14 38 -51 20 -73 -10 -11 -9 -14 8 -14 28 0 59 -65
41 -87 -11 -12 -10 -17 5 -25 9 -5 22 -19 27 -31 7 -17 8 -11 4 23 -3 25 -17
67 -30 93 -14 27 -25 57 -25 68 0 24 -34 59 -57 59 -13 0 -11 -4 7 -13z"/>
<path d="M441 3314 c0 -11 3 -14 6 -6 3 7 2 16 -1 19 -3 4 -6 -2 -5 -13z"/>
<path d="M1519 3309 c24 -11 46 -18 48 -15 4 4 -73 36 -85 35 -4 0 13 -9 37
-20z"/>
<path d="M5262 3275 c0 -16 2 -22 5 -12 2 9 2 23 0 30 -3 6 -5 -1 -5 -18z"/>
<path d="M451 3273 c-1 -12 -4 -29 -7 -38 -7 -17 -74 -55 -98 -55 -11 0 -25
-18 -30 -40 -1 -3 -8 -16 -15 -28 -7 -13 -10 -26 -7 -30 3 -3 6 0 6 6 0 28 80
98 120 106 3 1 10 5 17 9 6 4 37 5 67 3 31 -3 56 0 56 5 0 16 94 -3 132 -27
30 -19 90 -95 206 -261 11 -16 11 -15 2 5 -6 12 -31 50 -55 85 -39 57 -42 64
-27 74 15 10 14 11 -5 6 -17 -4 -28 4 -50 35 -15 22 -48 53 -73 68 -39 25 -55
29 -116 29 -75 1 -99 11 -114 50 -9 20 -9 20 -9 -2z"/>
<path d="M1619 3269 c24 -11 46 -18 48 -15 4 4 -73 36 -85 35 -4 0 13 -9 37
-20z"/>
<path d="M1710 3233 c19 -8 41 -20 49 -26 12 -10 13 -9 7 2 -8 13 -68 42 -83
40 -4 0 8 -7 27 -16z"/>
<path d="M718 3233 c12 -2 30 -2 40 0 9 3 -1 5 -23 4 -22 0 -30 -2 -17 -4z"/>
<path d="M840 3207 c0 -3 12 -12 26 -22 15 -9 23 -12 20 -6 -7 11 -46 35 -46
28z"/>
<path d="M571 3196 c2 -2 15 -9 29 -15 24 -11 24 -11 6 3 -16 13 -49 24 -35
12z"/>
<path d="M5261 3161 c-1 -16 -5 -21 -16 -17 -45 17 41 -77 122 -133 l48 -34
-33 35 c-24 26 -30 37 -20 42 10 4 9 5 -2 5 -25 -2 -34 1 -54 16 -19 15 -19
16 19 55 22 22 35 40 31 40 -4 0 -17 -10 -27 -22 l-20 -23 6 25 c5 21 4 22 -5
7 -6 -9 -8 -22 -5 -27 3 -6 3 -10 0 -10 -11 0 -33 26 -38 46 -4 16 -5 15 -6
-5z"/>
<path d="M257 3129 c-23 -23 -62 -54 -86 -70 -25 -16 -41 -29 -35 -29 5 0 26
12 47 26 l38 25 -6 -28 c-5 -21 -2 -19 13 12 10 22 34 55 51 73 18 17 30 32
26 32 -3 0 -25 -19 -48 -41z"/>
<path d="M664 3133 c21 -23 47 -65 57 -95 10 -29 18 -44 18 -33 1 35 -35 99
-75 135 l-39 35 39 -42z"/>
<path d="M1795 3140 c18 -35 19 -72 3 -89 -11 -10 -10 -12 2 -9 25 5 14 -111
-13 -141 l-22 -24 22 12 c12 6 24 19 26 28 12 42 18 114 10 125 -4 7 -6 25 -4
40 2 24 -23 88 -35 88 -2 0 2 -13 11 -30z"/>
<path d="M887 3145 c-4 -8 -15 -15 -26 -15 -11 0 -22 -4 -25 -9 -3 -4 6 -6 19
-3 25 4 52 28 43 38 -3 3 -8 -2 -11 -11z"/>
<path d="M1071 3074 c0 -27 4 -58 9 -69 4 -12 6 7 3 45 -7 79 -13 92 -12 24z"/>
<path d="M1460 3102 c36 -10 76 -24 89 -31 14 -8 21 -9 17 -2 -13 20 -60 38
-116 44 l-55 6 65 -17z"/>
<path d="M281 3054 c0 -11 3 -14 6 -6 3 7 2 16 -1 19 -3 4 -6 -2 -5 -13z"/>
<path d="M5810 3057 c0 -9 -17 -36 -37 -59 l-37 -43 37 34 c36 34 54 67 43 78
-3 4 -6 -1 -6 -10z"/>
<path d="M1580 3056 c0 -2 8 -10 18 -17 15 -13 16 -12 3 4 -13 16 -21 21 -21
13z"/>
<path d="M1530 3025 c25 -13 52 -24 60 -24 8 -1 -9 10 -38 24 -68 32 -81 32
-22 0z"/>
<path d="M1301 3030 c0 -8 4 -22 9 -30 12 -18 12 -2 0 25 -6 13 -9 15 -9 5z"/>
<path d="M1735 3029 c-11 -17 -57 -32 -95 -31 -35 2 -34 1 14 -18 27 -10 60
-29 75 -42 18 -16 21 -17 11 -4 -8 11 -28 27 -45 38 -18 11 -24 18 -14 18 9 0
27 8 40 19 13 10 33 21 44 24 19 4 18 5 -2 6 -12 0 -25 -4 -28 -10z"/>
<path d="M98 3023 c7 -3 16 -2 19 1 4 3 -2 6 -13 5 -11 0 -14 -3 -6 -6z"/>
<path d="M28 3013 c12 -2 30 -2 40 0 9 3 -1 5 -23 4 -22 0 -30 -2 -17 -4z"/>
<path d="M194 2996 c-3 -14 -20 -31 -37 -40 -18 -9 -25 -16 -17 -16 8 0 22 5
30 10 13 8 16 -2 21 -68 l6 -77 1 85 c0 47 4 95 8 108 3 12 4 22 0 22 -3 0 -8
-11 -12 -24z"/>
<path d="M272 2990 c0 -19 2 -27 5 -17 2 9 2 25 0 35 -3 9 -5 1 -5 -18z"/>
<path d="M78 2983 c6 -2 18 -2 25 0 6 3 1 5 -13 5 -14 0 -19 -2 -12 -5z"/>
<path d="M742 2949 c-1 -20 -9 -56 -17 -79 -8 -23 -15 -65 -15 -92 0 -81 -37
-133 -115 -159 -20 -7 -20 -7 0 -8 30 -1 90 43 105 78 11 28 17 31 54 31 57 0
86 30 95 102 5 43 10 53 25 51 12 -1 15 2 8 9 -18 18 -49 -11 -44 -44 5 -31
-20 -67 -47 -69 -11 0 -12 -2 -3 -6 7 -3 19 1 27 7 22 18 18 -4 -3 -23 -23
-21 -92 -23 -92 -3 0 8 8 17 18 19 16 4 16 5 0 6 -21 1 -24 41 -7 90 12 35 16
36 43 16 11 -8 25 -15 30 -15 6 0 -4 10 -21 23 -25 17 -33 31 -36 62 l-4 40
-1 -36z"/>
<path d="M1311 2964 c-1 -12 6 -28 16 -35 15 -13 15 -12 6 6 -6 11 -13 27 -16
35 -4 10 -6 8 -6 -6z"/>
<path d="M6 2961 c5 -5 29 -11 54 -14 l45 -6 -35 14 c-40 16 -79 19 -64 6z"/>
<path d="M5468 2963 c7 -3 16 -2 19 1 4 3 -2 6 -13 5 -11 0 -14 -3 -6 -6z"/>
<path d="M5515 2950 c27 -12 43 -12 25 0 -8 5 -22 9 -30 9 -10 0 -8 -3 5 -9z"/>
<path d="M5585 2950 c-13 -6 -15 -9 -5 -9 8 0 22 4 30 9 18 12 2 12 -25 0z"/>
<path d="M282 2915 c0 -16 2 -22 5 -12 2 9 2 23 0 30 -3 6 -5 -1 -5 -18z"/>
<path d="M1111 2910 c0 -8 4 -24 9 -35 5 -13 9 -14 9 -5 0 8 -4 24 -9 35 -5
13 -9 14 -9 5z"/>
<path d="M1349 2895 c5 -11 17 -29 26 -40 l16 -20 -10 20 c-5 11 -17 29 -26
40 l-16 20 10 -20z"/>
<path d="M911 2884 c0 -11 3 -14 6 -6 3 7 2 16 -1 19 -3 4 -6 -2 -5 -13z"/>
<path d="M291 2864 c0 -11 3 -14 6 -6 3 7 2 16 -1 19 -3 4 -6 -2 -5 -13z"/>
<path d="M1736 2843 c-6 -14 -5 -15 5 -6 7 7 10 15 7 18 -3 3 -9 -2 -12 -12z"/>
<path d="M1680 2841 c0 -5 5 -13 10 -16 6 -3 10 -2 10 4 0 5 -4 13 -10 16 -5
3 -10 2 -10 -4z"/>
<path d="M310 2803 c0 -25 19 -60 60 -105 33 -39 38 -48 23 -49 -10 0 -13 -3
-7 -5 6 -3 22 0 35 5 16 7 19 10 7 10 -20 1 -82 74 -102 122 -9 19 -15 29 -16
22z"/>
<path d="M1407 2790 c4 -14 8 -45 8 -69 -1 -35 -6 -48 -29 -68 -23 -20 -36
-23 -60 -18 -51 12 -86 12 -86 2 0 -5 10 -7 22 -4 12 4 42 -3 66 -13 49 -22
65 -25 42 -9 -12 8 -12 12 -2 16 23 9 51 45 57 74 6 25 9 27 33 19 15 -5 41
-11 57 -14 28 -6 29 -5 12 8 -11 8 -25 12 -32 10 -22 -9 -53 14 -75 54 -12 21
-17 26 -13 12z"/>
<path d="M1708 2780 c3 -24 -2 -36 -28 -60 -18 -16 -28 -30 -22 -30 32 0 79
98 54 114 -5 3 -6 -8 -4 -24z"/>
<path d="M201 2780 c0 -8 5 -25 12 -38 18 -31 105 -102 126 -102 9 1 1 7 -17
15 -18 8 -35 21 -38 29 -3 8 -15 18 -26 22 -11 3 -28 25 -39 47 -10 23 -19 35
-18 27z"/>
<path d="M1161 2747 c-2 -18 28 -74 50 -92 l24 -20 -22 25 c-12 14 -28 41 -36
60 -9 19 -16 31 -16 27z"/>
<path d="M1558 2677 c4 -15 7 -17 9 -7 3 12 13 15 41 12 20 -3 34 -2 31 2 -3
3 -24 8 -46 11 -39 5 -41 4 -35 -18z"/>
<path d="M475 2643 c10 -3 30 -12 42 -20 13 -9 26 -13 29 -10 3 3 -4 8 -15 12
-12 3 -21 11 -21 16 0 5 -12 8 -27 8 -21 -1 -23 -3 -8 -6z"/>
<path d="M1537 2624 c-20 -27 -53 -31 -76 -10 -14 13 -19 12 -36 -1 -20 -15
-20 -15 2 -9 12 4 30 2 41 -5 25 -16 69 -4 83 22 15 30 7 31 -14 3z"/>
<path d="M5195 2290 c27 -12 43 -12 25 0 -8 5 -22 9 -30 9 -10 0 -8 -3 5 -9z"/>
<path d="M5123 2276 c-4 -8 -17 -16 -28 -18 -15 -3 -13 -5 10 -9 26 -4 30 -2
30 18 0 27 -1 28 -12 9z"/>
<path d="M5270 2280 c12 -8 12 -12 0 -37 -8 -15 -27 -38 -42 -51 -16 -13 -28
-28 -28 -34 0 -12 60 49 75 77 6 10 21 22 35 26 23 6 23 7 3 8 -12 1 -25 6
-28 11 -3 6 -12 10 -18 10 -7 0 -6 -4 3 -10z"/>
<path d="M5383 2216 c28 -27 47 -54 47 -67 0 -12 3 -20 6 -16 15 15 -9 57 -53
92 l-48 37 48 -46z"/>
<path d="M5000 2239 c14 -6 34 -19 45 -29 20 -19 20 -18 20 11 0 23 -2 26 -10
15 -9 -12 -13 -12 -30 0 -10 8 -26 14 -34 13 -9 0 -5 -5 9 -10z"/>
<path d="M4916 2209 c-14 -17 -26 -38 -25 -47 0 -11 4 -8 10 8 6 14 20 35 31
47 12 13 19 23 16 23 -4 0 -18 -14 -32 -31z"/>
<path d="M5166 2207 c3 -10 9 -15 12 -12 3 3 0 11 -7 18 -10 9 -11 8 -5 -6z"/>
<path d="M5181 2148 c-1 -21 4 -38 9 -38 12 0 12 27 0 55 -7 16 -9 13 -9 -17z"/>
<path d="M4833 2123 c9 -2 23 -2 30 0 6 3 -1 5 -18 5 -16 0 -22 -2 -12 -5z"/>
<path d="M4881 2125 c1 -19 18 -51 18 -35 0 8 -4 22 -9 30 -5 8 -9 11 -9 5z"/>
<path d="M4790 2105 c-7 -9 -11 -17 -9 -20 3 -2 10 5 17 15 14 24 10 26 -8 5z"/>
<path d="M5442 2075 c0 -16 2 -22 5 -12 2 9 2 23 0 30 -3 6 -5 -1 -5 -18z"/>
<path d="M5182 2080 c0 -8 4 -26 8 -40 6 -20 8 -21 8 -5 0 11 -3 29 -8 40 -5
12 -8 14 -8 5z"/>
<path d="M4897 2063 c-9 -9 -9 -61 1 -66 4 -3 7 12 7 34 0 21 0 39 -1 39 0 0
-4 -3 -7 -7z"/>
<path d="M5231 2055 c1 -19 18 -51 18 -35 0 8 -4 22 -9 30 -5 8 -9 11 -9 5z"/>
<path d="M5885 2030 c-14 -7 -8 -8 20 -3 22 3 42 7 44 9 9 8 -45 2 -64 -6z"/>
<path d="M4775 2010 c-10 -11 -16 -22 -14 -24 2 -2 12 7 22 20 22 29 17 32 -8
4z"/>
<path d="M5452 2000 c0 -19 2 -27 5 -17 2 9 2 25 0 35 -3 9 -5 1 -5 -18z"/>
<path d="M5976 2020 c12 -5 29 -19 38 -32 9 -12 16 -18 16 -12 0 15 -44 54
-61 53 -8 0 -4 -4 7 -9z"/>
<path d="M5827 2005 c-11 -7 -24 -12 -30 -11 -7 2 -8 1 -4 -2 4 -2 2 -11 -5
-20 -7 -9 5 -3 27 13 22 16 42 30 44 32 2 2 0 3 -5 3 -5 0 -17 -7 -27 -15z"/>
<path d="M5202 1980 c0 -14 2 -19 5 -12 2 6 2 18 0 25 -3 6 -5 1 -5 -13z"/>
<path d="M5253 1960 c0 -25 2 -35 4 -22 2 12 2 32 0 45 -2 12 -4 2 -4 -23z"/>
<path d="M5715 1990 c-3 -6 1 -7 9 -4 18 7 21 14 7 14 -6 0 -13 -4 -16 -10z"/>
<path d="M4815 1978 c-36 -20 -54 -44 -44 -59 7 -12 9 -11 9 2 0 23 34 50 72
59 27 7 29 8 8 9 -14 0 -34 -5 -45 -11z"/>
<path d="M4915 1964 c16 -8 62 -47 101 -85 40 -38 75 -69 78 -69 7 0 -83 90
-137 137 -22 18 -46 33 -55 33 -10 0 -5 -7 13 -16z"/>
<path d="M5610 1960 c-11 -11 -20 -26 -19 -32 0 -7 5 -3 11 8 5 12 20 27 32
32 11 6 15 11 9 11 -7 1 -22 -8 -33 -19z"/>
<path d="M6076 1970 c12 -5 29 -19 38 -32 9 -12 16 -17 16 -11 0 17 -41 53
-59 52 -11 0 -9 -3 5 -9z"/>
<path d="M5462 1920 c0 -19 2 -27 5 -17 2 9 2 25 0 35 -3 9 -5 1 -5 -18z"/>
<path d="M5211 1924 c0 -11 3 -14 6 -6 3 7 2 16 -1 19 -3 4 -6 -2 -5 -13z"/>
<path d="M5761 1914 c0 -11 3 -14 6 -6 3 7 2 16 -1 19 -3 4 -6 -2 -5 -13z"/>
<path d="M5499 1893 c-13 -15 -12 -15 8 -2 20 12 26 11 51 -8 19 -14 33 -18
43 -12 11 7 10 9 -6 9 -11 0 -29 7 -39 15 -26 19 -40 19 -57 -2z"/>
<path d="M6130 1878 c0 -21 2 -38 4 -38 9 0 12 50 5 62 -6 8 -9 -1 -9 -24z"/>
<path d="M4771 1888 c0 -9 -4 -25 -7 -35 -5 -17 -5 -17 6 0 6 10 9 25 7 35 -4
15 -5 15 -6 0z"/>
<path d="M6168 1893 c6 -2 18 -2 25 0 6 3 1 5 -13 5 -14 0 -19 -2 -12 -5z"/>
<path d="M5647 1870 c13 -5 32 -24 43 -42 11 -18 20 -28 20 -21 0 19 -51 73
-68 72 -12 0 -10 -3 5 -9z"/>
<path d="M5474 1855 c-3 -8 -4 -20 -2 -27 3 -7 7 -1 10 15 6 29 1 36 -8 12z"/>
<path d="M5246 1825 c21 -51 28 -58 19 -20 -4 17 -14 37 -22 45 -11 12 -10 6
3 -25z"/>
<path d="M6121 1814 c0 -11 3 -14 6 -6 3 7 2 16 -1 19 -3 4 -6 -2 -5 -13z"/>
<path d="M4760 1811 c0 -16 61 -76 93 -92 15 -7 12 -2 -8 15 -16 14 -33 25
-38 26 -4 0 -16 15 -27 33 -11 17 -20 26 -20 18z"/>
<path d="M5726 1799 c-13 -15 -15 -24 -7 -32 8 -8 11 -7 11 3 0 7 7 22 17 32
9 10 12 18 7 18 -5 0 -18 -10 -28 -21z"/>
<path d="M5452 1777 c-15 -42 -86 -110 -110 -105 -9 2 -26 22 -38 46 -26 51
-31 58 -29 34 0 -10 9 -29 18 -42 9 -14 17 -28 17 -32 0 -20 -26 -3 -90 57
-38 36 -72 65 -75 65 -3 0 29 -32 70 -71 41 -39 75 -78 75 -86 0 -20 -60 -73
-85 -74 -17 -1 -18 -2 -2 -6 10 -3 33 7 52 21 18 14 45 26 60 26 70 0 297
-289 459 -585 36 -66 66 -115 66 -110 0 18 -120 228 -195 340 -70 106 -120
171 -232 304 -29 34 -53 68 -53 75 0 7 14 25 31 42 36 34 82 109 77 125 -2 6
-9 -5 -16 -24z"/>
<path d="M6111 1774 c0 -11 3 -14 6 -6 3 7 2 16 -1 19 -3 4 -6 -2 -5 -13z"/>
<path d="M5491 1775 c0 -5 11 -30 24 -55 13 -25 24 -40 24 -35 0 6 -11 30 -24
55 -13 25 -24 41 -24 35z"/>
<path d="M6202 1688 c-29 -50 -52 -91 -50 -93 2 -2 27 37 57 86 30 49 52 91
50 93 -2 2 -28 -37 -57 -86z"/>
<path d="M5713 1710 c0 -25 2 -35 4 -22 2 12 2 32 0 45 -2 12 -4 2 -4 -23z"/>
<path d="M6101 1743 c-1 -6 -4 -20 -7 -30 -5 -17 -5 -17 6 0 6 10 9 23 6 30
-3 9 -5 9 -5 0z"/>
<path d="M4880 1706 c0 -3 14 -12 30 -21 17 -9 30 -13 30 -11 0 3 -13 12 -30
21 -16 9 -30 13 -30 11z"/>
<path d="M6072 1665 c-17 -37 -14 -45 4 -12 9 16 14 31 11 33 -2 2 -9 -7 -15
-21z"/>
<path d="M4965 1655 c11 -9 29 -21 40 -26 l20 -10 -20 16 c-11 9 -29 21 -40
26 l-20 10 20 -16z"/>
<path d="M5541 1665 c0 -5 6 -21 13 -35 13 -22 12 -25 -8 -35 -12 -6 -22 -21
-23 -35 l-2 -25 7 25 c11 36 36 36 63 1 13 -17 35 -44 47 -61 36 -47 76 -63
134 -56 28 4 56 2 68 -4 24 -13 26 -45 4 -54 -26 -10 -122 -7 -129 5 -4 5 -12
8 -18 6 -18 -6 -77 29 -121 71 -26 24 -35 30 -27 15 13 -25 60 -62 111 -88 20
-10 69 -21 115 -24 l80 -6 5 -70 5 -70 6 68 c4 58 9 72 30 88 13 10 33 19 43
19 11 0 16 3 13 7 -4 3 2 13 13 20 11 8 27 28 36 45 21 40 55 140 50 145 -2 2
-14 -26 -26 -63 -25 -76 -59 -117 -112 -139 -35 -14 -37 -14 -52 10 -24 37
-48 46 -90 34 -54 -15 -101 4 -137 54 -16 22 -27 42 -25 44 2 3 27 -13 55 -35
62 -50 158 -72 122 -29 -6 8 -22 41 -36 73 -13 33 -24 50 -24 39 -1 -11 12
-44 28 -72 17 -30 24 -53 18 -53 -21 1 -92 36 -106 54 -7 9 -30 26 -51 37 -22
13 -45 37 -58 63 -11 22 -21 37 -21 31z"/>
<path d="M5721 1644 c0 -11 3 -14 6 -6 3 7 2 16 -1 19 -3 4 -6 -2 -5 -13z"/>
<path d="M5030 1616 c0 -3 9 -10 20 -16 11 -6 20 -8 20 -6 0 3 -9 10 -20 16
-11 6 -20 8 -20 6z"/>
<path d="M5188 1583 c6 -2 18 -2 25 0 6 3 1 5 -13 5 -14 0 -19 -2 -12 -5z"/>
<path d="M5110 1570 c8 -5 28 -10 44 -10 39 0 30 6 -19 13 -27 4 -35 3 -25 -3z"/>
<path d="M6111 1513 c-21 -40 -46 -73 -65 -84 -39 -24 -53 -24 -35 -2 11 13 8
13 -13 -2 -28 -21 -21 -31 16 -21 40 10 76 46 107 108 17 33 29 62 27 63 -2 2
-19 -26 -37 -62z"/>
<path d="M3944 1561 c37 -6 53 -14 68 -34 11 -15 24 -27 29 -27 5 0 -6 16 -25
35 -30 30 -42 35 -78 34 l-43 -2 49 -6z"/>
<path d="M3836 1531 c-20 -16 -32 -32 -27 -35 6 -4 15 2 21 14 6 11 23 26 38
34 15 9 22 15 16 16 -6 0 -28 -13 -48 -29z"/>
<path d="M3738 1523 c7 -3 16 -2 19 1 4 3 -2 6 -13 5 -11 0 -14 -3 -6 -6z"/>
<path d="M3691 1494 c-26 -33 -27 -50 -3 -26 10 9 17 19 15 21 -1 2 2 10 8 18
6 7 9 13 6 13 -3 0 -15 -12 -26 -26z"/>
<path d="M3740 1480 c8 -5 23 -10 33 -10 9 0 17 -7 17 -16 0 -17 -38 -84 -47
-84 -3 0 -16 10 -29 23 -44 43 -48 45 -60 28 -10 -13 -14 -14 -30 -1 -17 14
-18 14 -6 -2 10 -12 22 -15 41 -12 39 8 74 -36 66 -80 -5 -28 -4 -27 13 9 11
22 26 48 35 56 21 21 38 86 23 86 -6 0 -25 3 -41 7 -22 5 -26 4 -15 -4z"/>
<path d="M4097 1463 c19 -28 28 -30 13 -4 -8 16 -6 20 8 24 9 3 5 4 -9 4 -26
-1 -26 -2 -12 -24z"/>
<path d="M4162 1465 c15 -8 30 -25 34 -37 3 -12 16 -31 27 -42 18 -19 18 -17
-3 19 -25 44 -56 75 -74 75 -6 -1 1 -7 16 -15z"/>
<path d="M4126 1410 c3 -14 9 -54 13 -90 l8 -65 1 55 c0 30 -6 71 -14 90 -8
19 -12 24 -8 10z"/>
<path d="M3591 1384 c0 -11 3 -14 6 -6 3 7 2 16 -1 19 -3 4 -6 -2 -5 -13z"/>
<path d="M3601 1350 c0 -8 4 -24 9 -35 5 -13 9 -14 9 -5 0 8 -4 24 -9 35 -5
13 -9 14 -9 5z"/>
<path d="M4243 1320 c0 -25 2 -35 4 -22 2 12 2 32 0 45 -2 12 -4 2 -4 -23z"/>
<path d="M3621 1283 c-1 -6 3 -23 9 -37 7 -19 6 -26 -2 -26 -7 0 -6 -5 3 -12
9 -7 23 -34 33 -59 19 -53 76 -117 109 -123 110 -23 107 -16 109 -194 l2 -147
5 142 c4 78 10 145 14 150 5 4 23 13 40 20 l32 12 -40 -1 c-78 -1 -141 39
-185 115 -16 29 -30 47 -30 41 0 -18 57 -101 81 -118 32 -22 12 -20 -37 3 -57
28 -73 51 -110 154 -18 50 -33 87 -33 80z"/>
<path d="M3713 1240 c0 -30 2 -43 4 -27 2 15 2 39 0 55 -2 15 -4 2 -4 -28z"/>
<path d="M4231 1244 c0 -11 3 -14 6 -6 3 7 2 16 -1 19 -3 4 -6 -2 -5 -13z"/>
<path d="M5064 1217 c10 -7 21 -29 26 -47 7 -29 8 -31 9 -10 1 28 -24 70 -41
70 -7 0 -4 -6 6 -13z"/>
<path d="M4131 1204 c0 -11 3 -14 6 -6 3 7 2 16 -1 19 -3 4 -6 -2 -5 -13z"/>
<path d="M4216 1205 c-9 -26 -7 -32 5 -12 6 10 9 21 6 23 -2 3 -7 -2 -11 -11z"/>
<path d="M5019 1191 c-13 -22 -22 -28 -41 -24 -14 3 -42 -3 -64 -12 -21 -10
-52 -21 -69 -25 -22 -6 -25 -8 -9 -9 12 -1 41 8 65 19 24 11 54 20 67 20 l22
0 -25 -40 c-14 -22 -25 -47 -25 -55 0 -12 -4 -14 -19 -5 -11 5 -23 10 -28 10
-4 -1 4 -7 18 -15 20 -11 27 -24 31 -57 11 -98 61 -165 221 -296 107 -88 104
-105 -23 -123 l-55 -7 63 1 c34 1 62 -1 62 -5 0 -15 -50 -40 -97 -48 l-48 -8
46 -1 c35 -1 56 6 92 30 54 36 55 35 162 -49 128 -102 266 -250 349 -374 43
-65 80 -118 83 -118 6 0 1 7 -80 130 -79 119 -176 223 -322 348 -108 92 -134
120 -135 140 0 7 -33 45 -74 83 -73 69 -87 90 -188 281 -16 28 -28 45 -28 37
0 -8 12 -34 27 -59 63 -109 103 -183 99 -188 -10 -9 -92 86 -115 133 -35 71
-39 139 -11 198 12 26 30 53 40 60 9 7 20 22 24 35 10 30 4 28 -15 -7z"/>
<path d="M3536 1184 c-4 -9 -4 -19 -1 -22 3 -3 5 0 5 7 0 6 10 16 23 21 22 9
22 9 1 9 -12 1 -25 -6 -28 -15z"/>
<path d="M5853 1125 c0 -44 2 -61 4 -37 2 23 2 59 0 80 -2 20 -4 1 -4 -43z"/>
<path d="M4174 1112 c-10 -19 -36 -50 -59 -69 l-40 -35 38 18 c20 10 37 22 37
27 0 18 51 78 74 87 19 8 19 9 -5 7 -19 -1 -32 -11 -45 -35z"/>
<path d="M4270 1146 c0 -2 7 -7 16 -10 8 -3 12 -2 9 4 -6 10 -25 14 -25 6z"/>
<path d="M3565 1110 c10 -11 20 -20 23 -20 3 0 -3 9 -13 20 -10 11 -20 20 -23
20 -3 0 3 -9 13 -20z"/>
<path d="M5102 1100 c0 -19 2 -27 5 -17 2 9 2 25 0 35 -3 9 -5 1 -5 -18z"/>
<path d="M4782 1113 c-7 -2 -17 -14 -23 -26 -11 -20 -10 -20 17 3 16 14 31 26
33 28 7 4 -14 1 -27 -5z"/>
<path d="M518 1103 c7 -3 16 -2 19 1 4 3 -2 6 -13 5 -11 0 -14 -3 -6 -6z"/>
<path d="M608 1103 c7 -3 16 -2 19 1 4 3 -2 6 -13 5 -11 0 -14 -3 -6 -6z"/>
<path d="M4354 1096 c12 -10 16 -21 12 -33 -6 -15 -5 -16 6 -5 14 14 1 43 -23
50 -8 2 -7 -3 5 -12z"/>
<path d="M655 1088 c35 -19 67 -52 81 -83 9 -21 13 -24 14 -11 0 21 -81 106
-101 106 -8 0 -6 -5 6 -12z"/>
<path d="M4298 1093 c7 -3 16 -2 19 1 4 3 -2 6 -13 5 -11 0 -14 -3 -6 -6z"/>
<path d="M436 1069 c-14 -11 -31 -30 -37 -42 -9 -20 -8 -20 9 2 11 13 30 32
43 42 13 10 21 19 18 19 -4 0 -18 -9 -33 -21z"/>
<path d="M3600 1084 c0 -7 91 -46 96 -42 2 2 -19 14 -46 25 -28 12 -50 19 -50
17z"/>
<path d="M4069 1064 c-13 -14 -40 -34 -59 -45 -32 -17 -33 -18 -10 -18 23 0
76 29 54 29 -5 0 -2 6 6 13 18 15 44 47 38 47 -2 0 -15 -12 -29 -26z"/>
<path d="M4228 1063 c18 -2 45 -2 60 0 15 2 0 4 -33 4 -33 0 -45 -2 -27 -4z"/>
<path d="M4742 1030 c0 -19 2 -27 5 -17 2 9 2 25 0 35 -3 9 -5 1 -5 -18z"/>
<path d="M4835 1030 c-16 -16 -37 -30 -47 -30 -24 0 -87 -57 -94 -86 -3 -13
-14 -24 -23 -25 -10 0 -11 -2 -3 -6 6 -2 13 -19 13 -36 1 -25 3 -22 9 16 10
60 50 113 93 125 29 8 107 72 88 72 -4 0 -20 -13 -36 -30z"/>
<path d="M5111 1024 c1 -21 5 -50 9 -64 5 -16 6 -2 3 35 -7 69 -13 86 -12 29z"/>
<path d="M5862 1000 c0 -19 2 -27 5 -17 2 9 2 25 0 35 -3 9 -5 1 -5 -18z"/>
<path d="M373 930 c0 -25 2 -35 4 -22 2 12 2 32 0 45 -2 12 -4 2 -4 -23z"/>
<path d="M5871 905 c-2 -49 -2 -49 -16 -25 -30 52 -10 -3 42 -119 8 -18 26
-63 38 -100 13 -36 24 -59 24 -51 0 8 -16 56 -36 105 -24 60 -38 115 -43 165
-6 66 -7 69 -9 25z"/>
<path d="M5120 927 c0 -12 39 -86 78 -147 20 -30 41 -71 48 -90 9 -23 13 -28
14 -15 0 11 -25 62 -55 113 -30 51 -55 96 -55 101 0 10 -29 48 -30 38z"/>
<path d="M4611 854 c-12 -15 -21 -30 -21 -35 0 -4 -12 -22 -27 -41 l-27 -33
27 24 c15 13 29 33 33 43 3 10 10 16 15 13 5 -4 9 1 9 9 0 8 7 22 16 30 8 9
11 16 5 16 -5 0 -19 -12 -30 -26z"/>
<path d="M390 834 c0 -21 62 -104 101 -132 21 -16 37 -31 34 -33 -2 -3 4 -5
14 -5 10 0 18 6 18 13 0 7 -4 10 -9 7 -23 -15 -105 64 -147 141 -5 11 -11 15
-11 9z"/>
<path d="M630 748 c-36 -34 -51 -52 -35 -41 29 21 114 103 105 103 -3 -1 -34
-29 -70 -62z"/>
<path d="M4696 788 c26 -30 57 -57 67 -58 4 0 -11 18 -34 40 -46 44 -63 53
-33 18z"/>
<path d="M4611 776 c0 -11 -11 -31 -23 -45 l-22 -26 28 26 c18 17 26 33 23 45
-4 18 -5 18 -6 0z"/>
<path d="M4532 720 c0 -14 2 -19 5 -12 2 6 2 18 0 25 -3 6 -5 1 -5 -13z"/>
<path d="M4818 705 c47 -29 54 -45 19 -45 -13 0 -43 -13 -65 -30 -25 -18 -54
-30 -72 -30 -46 0 -101 26 -133 63 -16 17 -24 23 -19 12 21 -43 94 -85 147
-85 15 0 24 -4 20 -10 -13 -22 11 -8 31 18 12 15 25 24 28 21 4 -3 -2 -17 -13
-30 -14 -18 -30 -24 -60 -25 -43 0 -94 -29 -99 -56 -6 -30 26 -48 81 -46 l52
1 -54 6 c-96 11 -92 71 5 71 43 0 51 5 108 76 38 47 69 48 151 8 39 -19 86
-36 105 -39 25 -4 19 0 -20 13 -73 25 -132 56 -172 91 -18 15 -44 31 -58 35
-16 5 -10 -2 18 -19z"/>
<path d="M5874 535 c0 -110 2 -156 3 -103 2 53 2 143 0 200 -1 57 -3 13 -3
-97z"/>
<path d="M1488 703 c12 -2 30 -2 40 0 9 3 -1 5 -23 4 -22 0 -30 -2 -17 -4z"/>
<path d="M1693 703 c9 -2 23 -2 30 0 6 3 -1 5 -18 5 -16 0 -22 -2 -12 -5z"/>
<path d="M1403 693 c9 -2 23 -2 30 0 6 3 -1 5 -18 5 -16 0 -22 -2 -12 -5z"/>
<path d="M1758 693 c6 -2 18 -2 25 0 6 3 1 5 -13 5 -14 0 -19 -2 -12 -5z"/>
<path d="M1338 683 c6 -2 18 -2 25 0 6 3 1 5 -13 5 -14 0 -19 -2 -12 -5z"/>
<path d="M1278 673 c6 -2 18 -2 25 0 6 3 1 5 -13 5 -14 0 -19 -2 -12 -5z"/>
<path d="M1840 670 c8 -5 20 -10 25 -10 6 0 3 5 -5 10 -8 5 -19 10 -25 10 -5
0 -3 -5 5 -10z"/>
<path d="M3896 625 c3 -35 -2 -89 -10 -130 -28 -125 -15 -324 29 -455 8 -25
12 -32 9 -15 -46 242 -52 332 -29 461 13 77 14 110 6 149 l-10 50 5 -60z"/>
<path d="M1228 663 c7 -3 16 -2 19 1 4 3 -2 6 -13 5 -11 0 -14 -3 -6 -6z"/>
<path d="M1168 653 c6 -2 18 -2 25 0 6 3 1 5 -13 5 -14 0 -19 -2 -12 -5z"/>
<path d="M1880 658 c3 -3 37 -27 75 -52 39 -25 55 -33 38 -18 -28 24 -127 85
-113 70z"/>
<path d="M1118 643 c7 -3 16 -2 19 1 4 3 -2 6 -13 5 -11 0 -14 -3 -6 -6z"/>
<path d="M440 630 c-8 -5 -10 -10 -5 -10 6 0 17 5 25 10 8 5 11 10 5 10 -5 0
-17 -5 -25 -10z"/>
<path d="M1058 633 c6 -2 18 -2 25 0 6 3 1 5 -13 5 -14 0 -19 -2 -12 -5z"/>
<path d="M988 623 c6 -2 18 -2 25 0 6 3 1 5 -13 5 -14 0 -19 -2 -12 -5z"/>
<path d="M390 610 c-8 -5 -10 -10 -5 -10 6 0 17 5 25 10 8 5 11 10 5 10 -5 0
-17 -5 -25 -10z"/>
<path d="M713 613 c9 -2 23 -2 30 0 6 3 -1 5 -18 5 -16 0 -22 -2 -12 -5z"/>
<path d="M903 613 c9 -2 23 -2 30 0 6 3 -1 5 -18 5 -16 0 -22 -2 -12 -5z"/>
<path d="M318 583 c7 -3 16 -2 19 1 4 3 -2 6 -13 5 -11 0 -14 -3 -6 -6z"/>
<path d="M5961 585 c0 -5 6 -32 13 -60 8 -27 14 -41 14 -30 0 21 -25 107 -27
90z"/>
<path d="M278 573 c7 -3 16 -2 19 1 4 3 -2 6 -13 5 -11 0 -14 -3 -6 -6z"/>
<path d="M238 563 c7 -3 16 -2 19 1 4 3 -2 6 -13 5 -11 0 -14 -3 -6 -6z"/>
<path d="M178 553 c6 -2 18 -2 25 0 6 3 1 5 -13 5 -14 0 -19 -2 -12 -5z"/>
<path d="M2074 516 c27 -25 70 -59 95 -77 64 -45 41 -23 -59 55 -53 41 -66 50
-36 22z"/>
<path d="M93 543 c9 -2 25 -2 35 0 9 3 1 5 -18 5 -19 0 -27 -2 -17 -5z"/>
<path d="M7 533 c7 -2 19 -2 26 0 6 3 1 5 -13 5 -14 0 -19 -2 -13 -5z"/>
<path d="M4953 533 c9 -2 23 -2 30 0 6 3 -1 5 -18 5 -16 0 -22 -2 -12 -5z"/>
<path d="M4860 500 c-14 -4 12 -6 60 -3 47 3 87 7 89 9 8 7 -124 2 -149 -6z"/>
<path d="M3060 483 c0 -69 -59 -156 -129 -193 -20 -11 -31 -19 -25 -20 25 -1
104 62 128 102 24 41 46 128 32 128 -3 0 -6 -8 -6 -17z"/>
<path d="M4760 480 c-20 -6 -21 -8 -5 -8 11 0 34 4 50 8 27 7 27 8 5 8 -14 0
-36 -4 -50 -8z"/>
<path d="M5997 400 c3 -41 7 -77 9 -79 7 -8 3 74 -6 114 -6 30 -7 21 -3 -35z"/>
<path d="M2220 406 c0 -3 9 -10 20 -16 11 -6 20 -8 20 -6 0 3 -9 10 -20 16
-11 6 -20 8 -20 6z"/>
<path d="M2270 376 c0 -3 9 -10 20 -16 11 -6 20 -8 20 -6 0 3 -9 10 -20 16
-11 6 -20 8 -20 6z"/>
<path d="M2350 330 c8 -5 20 -10 25 -10 6 0 3 5 -5 10 -8 5 -19 10 -25 10 -5
0 -3 -5 5 -10z"/>
<path d="M5887 225 c2 -60 8 -137 13 -170 13 -101 9 0 -5 145 l-14 135 6 -110z"/>
<path d="M2450 290 c8 -5 22 -9 30 -9 10 0 8 3 -5 9 -27 12 -43 12 -25 0z"/>
<path d="M6012 244 c-2 -57 29 -228 43 -242 4 -4 4 4 1 18 -3 14 -11 48 -17
75 -7 28 -15 86 -19 130 -7 79 -7 79 -8 19z"/>
<path d="M2538 263 c7 -3 16 -2 19 1 4 3 -2 6 -13 5 -11 0 -14 -3 -6 -6z"/>
<path d="M2840 260 c-20 -6 -21 -8 -5 -8 11 0 29 3 40 8 25 11 -1 11 -35 0z"/>
<path d="M2588 253 c6 -2 18 -2 25 0 6 3 1 5 -13 5 -14 0 -19 -2 -12 -5z"/>
<path d="M2678 243 c23 -2 61 -2 85 0 23 2 4 4 -43 4 -47 0 -66 -2 -42 -4z"/>
</g>
</svg>
